<?xml version="1.0" encoding="UTF-8" standalone="no"?>
<svg
   height="178.65692"
   width="923.0769"
   viewBox="-150 -48.38625 999.99998 64.834038"
   version="1.1"
   id="svg826"
   sodipodi:docname="facebook.svg"
   inkscape:version="1.1-dev (9017afb, 2021-01-01)"
   xmlns:inkscape="http://www.inkscape.org/namespaces/inkscape"
   xmlns:sodipodi="http://sodipodi.sourceforge.net/DTD/sodipodi-0.dtd"
   xmlns="http://www.w3.org/2000/svg"
   xmlns:svg="http://www.w3.org/2000/svg">
  <defs
     id="defs830" />
  <sodipodi:namedview
     id="namedview828"
     pagecolor="#505050"
     bordercolor="#eeeeee"
     borderopacity="1"
     objecttolerance="10.0"
     gridtolerance="10.0"
     guidetolerance="10.0"
     inkscape:pageshadow="0"
     inkscape:pageopacity="0"
     inkscape:pagecheckerboard="0"
     showgrid="false"
     fit-margin-top="0"
     fit-margin-left="0"
     fit-margin-right="0"
     fit-margin-bottom="0"
     inkscape:zoom="0.46144482"
     inkscape:cx="935.10638"
     inkscape:cy="263.30342"
     inkscape:window-width="1312"
     inkscape:window-height="847"
     inkscape:window-x="0"
     inkscape:window-y="25"
     inkscape:window-maximized="0"
     inkscape:current-layer="svg826" />
  <path
     d="M -86.649996,77.820271 H -124.331 V -16.11373 H -150 v -30.583 h 25.668 v -21.762 c 0,-25.788 11.353,-44.283 48.932004,-44.283 7.948,0 20.426,1.602 20.426,1.602 v 28.398 h -13.106 c -13.354,0 -18.568,4.062 -18.568,15.292 v 20.753 h 31.174 l -2.776,30.583 h -28.399 z M -0.1899956,-49.14073 c -0.549,0 -1.114,0.02 -1.673,0.034 -34.9400004,0 -50.9260004,26.282 -50.9260004,63.59 0,46.998001 20.736,65.808001 51.1990004,65.808001 17.4289996,0 28.8799996,-7.336 35.8399996,-21.026 v 18.568 h 35.84 V -46.68373 h -35.84 v 19.149 c -5.683,-12.32 -17.454,-21.46 -34.4399996,-21.606 z m 9.113,29.423 c 14.6749996,0 23.4829996,10.2359999 23.4829996,27.6469999 l 0.034,17.7830001 c 0,11.735 -7.275,25.464001 -23.5169996,25.464001 -24.9700004,0 -24.3030004,-26.962001 -24.3030004,-35.942001 0,-30.207 13.3040004,-34.952 24.3030004,-34.952 z m 75.6409996,35.299 c 0,-15.13100012 -0.724,-64.641 63.779996,-64.641 25.893,0 36.705,8.233 36.705,8.233 l -8.69,26.953 c 0,0 -10.798,-5.946 -24.868,-5.946 -18.021,0 -29.52,10.4469999 -29.52,28.8279999 l 0.02,13.1800001 c 0,17.662 11.095,29.452001 29.537,29.452001 12.818,0 24.632,-6.002001 24.632,-6.002001 l 8.668,26.390001 c 0,0 -9.886,8.285 -36.303,8.285 -61.417996,0 -63.959996,-44.420001 -63.959996,-64.732001 z M 395.192,-49.10673 c 34.941,0 51.179,26.282 51.179,63.59 0,46.998001 -20.737,65.808001 -51.2,65.808001 -17.429,0 -30.313,-7.335 -37.273,-21.026 v 18.568 l -35.389,-0.014 V -108.95573 l 37.574,-3.277 v 83.011 c 5.423,-14.523 23.245,-19.885 35.11,-19.885 z m -10.534,29.389 c -14.675,0 -24.575,10.2359999 -24.575,27.6469999 L 360.048,25.71227 c -0.022,11.735 6.856,25.464001 24.61,25.464001 24.97,0 24.303,-26.962001 24.303,-35.942001 0,-30.207 -13.303,-34.952 -24.303,-34.952 z m -134.415,-29.286 c -39.63,0 -60.552,21.607 -60.552,60.005 v 7.134 c 0,49.837001 29.381,62.668001 64.409,62.668001 34.047,0 49.458,-9.523 49.458,-9.523 L 296.527,45.92027 c 0,0 -18.128,7.713001 -37.922,7.713001 -20.52,0 -29.345,-5.23 -31.607,-24.950001 h 79.564 V 8.3382699 c 0,-41.6519999 -23.481,-57.3429999 -56.32,-57.3429999 z m 0.955,25.394 c 13.718,0 22.607,8.412 22.119,27.9209999 h -46.25 C 227.869,-16.22173 237.455,-23.60873 251.198,-23.60873 Z m 270.094,-25.565 c -40.697,0 -62.122,22.934 -62.122,64.033 0,56.390001 36.932,65.467001 62.19,65.467001 36.976,0 61.576,-19.907 61.576,-64.955001 0,-46.887 -27.66,-64.545 -61.644,-64.545 z m -0.512,29.559 c 17.895,0 24.986,13.3929999 24.986,28.6379999 V 22.12927 c 0,18.468 -9.922,29.150001 -25.054,29.150001 -14.152,0 -24.098,-9.992001 -24.098,-29.150001 V 9.0222699 c 0,-20.4319999 11.835,-28.6379999 24.166,-28.6379999 z m 137.01,-29.559 c -40.697,0 -62.122,22.934 -62.122,64.033 0,56.390001 36.932,65.467001 62.19,65.467001 36.975,0 61.576,-19.907 61.576,-64.955001 0,-46.887 -27.661,-64.545 -61.644,-64.545 z m -0.512,29.559 c 17.895,0 24.985,13.3929999 24.985,28.6379999 V 22.12927 c 0,18.468 -9.922,29.150001 -25.053,29.150001 -14.152,0 -24.098,-9.992001 -24.098,-29.150001 V 9.0222699 c 0,-20.4319999 11.835,-28.6379999 24.166,-28.6379999 z m 76.355,97.436001 V -108.95573 l 37.683,-3.276 v 125.189 l 37.386,-59.653 h 39.796 l -39,61.783 L 850,77.820271 H 810.091 L 771.316,16.90627 v 60.914001 z"
     fill="#1877f2"
     id="path824" />
</svg>
