<?xml version="1.0" encoding="UTF-8" standalone="no"?>
<svg
   width="196.73277mm"
   height="23.607986mm"
   viewBox="0 0 196.73277 23.607986"
   version="1.1"
   id="svg5"
   xmlns="http://www.w3.org/2000/svg"
   xmlns:svg="http://www.w3.org/2000/svg">
  <defs
     id="defs2" />
  <g
     id="layer1"
     transform="translate(2.8764882,-9.3521464)">
    <g
       id="g830"
       transform="matrix(0.35277777,0,0,-0.35277777,4.4137366,252.24875)">
      <g
         id="g869"
         transform="matrix(0.78693027,0,0,0.78693027,-21.179857,621.50088)">
        <path
           d="m 165.471,28.596 c 3.313,-3.664 6.917,-9.513 11.854,-9.513 6.551,0 13.012,5.107 13.012,9.347 0.039,4.068 -0.563,4.966 -9.333,12.546 -4.212,3.641 -9.662,3.42 -14.028,-0.594 -3.871,-3.557 -4.776,-8.172 -1.505,-11.786 z m 89.812,8.264 c -4.606,5.094 -6.438,6.312 -7.924,6.312 -2.036,0 -3.709,-0.993 -4.994,-2.169 -2.002,2.214 -3.953,4.256 -6.028,6.377 8.252,4.476 12.37,5.9 25.078,14.226 2.423,1.566 5.808,2.655 7.671,4.859 1.989,2.352 1.889,5.583 -0.06,7.744 l -6.153,6.803 c -1.453,1.612 -3.659,3.115 -6.81,3.115 -3.994,0 -6.492,-1.409 -8.664,-3.247 l -0.05,-0.042 -0.048,-0.045 c -0.935,-0.89 -1.581,-1.775 -4.657,-3.873 -2.827,-1.927 -6.775,-4.372 -10.755,-6.725 -0.042,1.936 -0.114,3.001 -2.127,5.224 -7.16,7.917 -8.168,9.273 -11.711,9.273 -2.063,0 -4.051,-0.678 -5.62,-1.487 -3.462,-1.783 -5.37,-4.494 -5.285,-8.39 0.033,-1.48 0.037,-2.824 -0.832,-4.438 -2.453,-4.816 -10.29,-22.368 -12.831,-28.471 -1.839,-4.419 -2.844,-11.191 0.367,-14.737 7.019,-7.762 7.681,-8.651 9.983,-8.651 4.954,0 9.746,5.889 12.61,9.545 1.956,2.499 1.309,4.999 -0.04,6.572 0.022,2.52 1.81,5.162 2.808,7.477 4.403,-3.958 8.974,-8.377 13.036,-12.685 2.388,-2.788 7.587,-10.909 13.766,-10.909 4.023,0 11.044,4.085 12.842,7.503 4.676,-5.17 6.364,-6.938 9.525,-6.938 2.686,0 5.777,1.032 8.195,2.521 3.311,2.038 6.384,5.786 3.827,10.018 -2.094,3.468 -5.278,6.706 -8.342,9.354 -1.702,1.47 -4.093,2.705 -6.639,2.705 -4.28,0 -8.817,-4.242 -10.138,-6.821 z m 410.365,3.413 c 0.478,1.77 1.271,3.731 2.385,5.781 3.939,8.251 16.211,18.857 22.144,18.566 0.851,0 1.499,-0.139 2.547,-0.613 -3.802,-1.132 -8.317,-3.226 -10.335,-6.645 -0.576,-0.977 -0.906,-2.06 -0.998,-3.292 -0.08,-1.138 -0.868,-2.695 -2.466,-4.551 -1.531,-1.779 -3.539,-3.528 -5.485,-5.029 -2.406,-1.855 -5.326,-3.301 -7.792,-4.217 z m -23.836,0.943 c 0.168,-3.514 1.545,-7.608 3.905,-10.216 4.709,-5.147 5.643,-6.196 6.727,-7.406 -6.821,-0.563 -11.237,-5.461 -7.436,-10.846 l 6.153,-6.803 c 2.969,-3.275 10.419,-5.812 19.734,-5.812 7.324,0 19.785,7.657 23.744,16.862 1.933,4.496 5.451,15.28 6.942,21.252 0.993,3.776 2.801,7.246 5.39,9.458 2.259,1.728 2.332,5.234 0.876,6.846 -4.671,5.718 -5.454,6.421 -7.553,8.125 0.03,0.006 0.06,0.012 0.09,0.018 l 0.024,0.005 c 2.175,0.459 5.879,2.917 7.219,4.151 2.485,2.291 1.93,5.184 0.252,7.038 l -6.152,6.804 c -1.978,2.186 -5.311,3.707 -10.874,3.707 -5.372,0 -13.352,-1.928 -20.833,-5.791 l -0.021,-0.011 c -8.799,-4.662 -15.816,-10.472 -20.654,-16.75 -2.544,-3.301 -4.501,-6.756 -5.786,-10.255 -3.665,5.128 -7.631,4.899 -11.234,5.089 -0.294,5.022 -0.302,8.71 -0.227,9.292 v 0.011 l 0.007,0.009 c 0.652,0.799 3.612,3.052 3.733,5.262 0.071,1.305 -0.86,3.067 -7.889,10.84 -2.353,2.6 -6.064,3.544 -9.439,2.22 -1.818,-0.712 -3.698,-2.269 -5.023,-3.704 -3.016,-3.267 -11.112,-12.035 -23.746,-25.196 -0.514,-0.535 -0.46,-0.47 -0.811,-0.506 l -0.052,-0.006 -0.051,-0.007 c -2.002,-0.302 -4.072,-1.124 -6.542,-3.95 l -0.018,-0.021 -0.018,-0.021 c -1.084,-1.303 -1.03,-3.735 -2.097,-5.052 -7.064,-7.343 -8.367,-8.821 -9.294,-10.183 -0.871,-1.281 -1.643,-2.791 -1.643,-4.311 0,-1.573 0.737,-3.153 1.799,-4.326 3.123,-3.455 6.46,-9.08 11.114,-9.08 4.209,0 9.969,2.648 12.165,4.154 l 0.017,0.012 0.018,0.012 c 2.731,1.952 1.916,4.709 2.73,7.967 2.251,7.251 9.256,7.429 15.807,8.063 0.197,-1.403 0.432,-2.77 0.716,-4.127 0.452,-2.123 1.286,-3.861 2.466,-5.17 L 622.2,22.06 c 1.396,-1.549 2.601,-2.694 6.204,-2.694 8.174,0 12.779,5.289 12.779,10.625 0,1.066 -0.347,2.63 -6.664,9.613 2.584,0.347 4.928,0.806 7.293,1.612 z M 72.385,27.881 c 5.712,-6.317 6.988,-7.51 8.061,-8.041 2.602,-1.287 7.343,-0.696 11.34,1.764 2.303,1.417 4.917,4.301 4.814,7.005 0.264,-0.476 0.574,-0.904 7.072,-8.091 1.328,-1.47 2.869,-2.566 6.202,-2.566 2.284,0 5.356,1.007 7.768,3.341 l 0.016,0.017 0.017,0.016 c 3.481,3.513 3.969,5.662 3.969,11.444 0,0.514 -0.018,1.215 0.455,3.016 0.781,2.787 3.369,7.907 5.629,11.966 2.024,-2.997 4.205,-6.18 6.084,-8.729 2.478,-3.482 3.834,-5.701 4.702,-7.12 2.695,-4.407 6.396,-9.163 10.992,-11.515 6.275,-3.146 15.805,3.552 12.004,8.696 l -0.022,0.028 c -0.204,0.258 -0.662,0.805 -0.883,1.049 -0.71,1.027 -0.264,2.761 0.869,6.489 3.022,9.668 6.162,16.531 11.255,25.146 0.444,0.75 1.606,1.421 2.303,1.478 3.598,0.214 5.164,2.15 5.164,4.529 0,2.777 -1.21,6.095 -3.071,8.155 l -6.153,6.804 c -2.836,3.139 -7.987,3.312 -11.985,-0.069 -2.255,-1.907 -4.568,-5.109 -8.162,-12.343 -2.605,-5.243 -6.171,-12.3 -7.588,-16.312 -2.678,3.857 -6.568,7.616 -8.056,12.071 1.508,2.667 3.676,3.604 -0.39,8.107 l -6.153,6.804 c -1.062,1.176 -3.562,2.541 -6.122,2.541 -3.188,0 -7.189,-2.336 -7.729,-5.293 -1.831,-1.605 -3.543,-1.562 -4.975,-5.198 l -0.021,-0.053 -0.018,-0.053 c -0.588,-1.743 -0.26,-3.373 2.232,-6.127 -1.532,-3.113 -9.288,-18.456 -14.099,-27.784 -1.19,-2.244 -2.246,-4.87 -2.34,-7.304 -2.047,3.341 -5.232,6.579 -8.296,9.227 -5.156,4.456 -15.553,0.869 -17.404,-5.694 l -3.909,4.322 c 5.246,0.704 12.068,2.402 12.866,5.867 0.287,1.628 -1.209,4.062 -6.841,9.455 -1.225,1.356 -5.339,1.603 -8.219,1.755 -0.294,5.022 -0.301,8.71 -0.219,9.312 2.6,3.191 5.093,5.076 2.708,8.422 l -0.017,0.022 c -0.21,0.289 -0.443,0.575 -0.695,0.854 l -6.153,6.804 C 54.709,87.265 48.653,84.647 44.926,80.611 41.909,77.344 33.813,68.576 21.179,55.415 20.665,54.88 20.72,54.945 20.369,54.909 l -0.052,-0.006 -0.051,-0.007 c -2.002,-0.302 -4.072,-1.124 -6.543,-3.95 L 13.706,50.925 13.688,50.904 C 12.603,49.601 12.658,47.169 11.591,45.852 8.496,42.573 4.833,39.398 2.297,35.669 1.425,34.388 0.654,32.878 0.654,31.358 c 0,-1.573 0.737,-3.153 1.799,-4.326 6.536,-7.229 7.097,-7.85 8.326,-8.441 3.671,-1.765 10.182,0.243 14.952,3.515 l 0.018,0.012 0.018,0.012 c 2.731,1.952 1.916,4.709 2.73,7.967 1.853,5.969 5.171,7.455 15.806,8.063 0.197,-1.403 0.432,-2.77 0.717,-4.127 0.452,-2.123 1.286,-3.861 2.466,-5.17 l 6.152,-6.803 c 1.397,-1.549 2.601,-2.694 6.205,-2.694 6.595,0 11.062,2.082 12.542,8.515 z m 450.597,36.88 c -5.775,6.386 -6.4,7.204 -10.202,7.204 -6.286,0 -11.199,-3.965 -15.175,-7.597 -6.35,7.022 -8.996,9.881 -16.803,4.279 -3.013,-2.162 -4.313,-4.269 -5.181,-9.837 l -0.007,-0.046 -0.005,-0.046 c -0.266,-2.323 -0.588,-5.091 -1.071,-8.022 -2.491,-2.095 -4.999,-4.042 -7.313,-5.677 0.82,2.024 6.76,11.329 6.129,14.394 -0.221,1.073 -0.972,2.436 -7.859,10.052 -4.201,4.643 -9.294,3.222 -13.148,-1.741 l -0.012,-0.016 c -0.431,-0.576 -0.958,-1.306 -1.547,-2.121 -1.207,-1.67 -2.727,-3.77 -4.458,-6.017 -1.287,1.612 -3.126,3.838 -6.782,7.599 -3.912,4.332 -10.657,5.044 -14.576,0.02 -1.359,-2.116 -4.52,-7.207 -7.44,-13.616 -2.778,7.193 -2.298,4.67 -14.282,17.924 -1.938,2.146 -7.204,3.249 -11.695,0.753 -0.326,0.737 -0.983,1.753 -7.677,9.155 -2.256,2.492 -7.484,4.628 -10.939,0.351 -0.42,-0.484 -1.642,-1.317 -2.434,-1.317 -2.264,0 -9.841,0.112 -12.059,0.22 -0.53,0.026 -1.534,0.108 -1.989,0.539 -1.744,1.523 -4.398,3.638 -7.281,3.548 -1.355,-0.043 -2.597,-0.528 -3.615,-1.233 -0.894,-0.62 -1.659,-1.438 -2.22,-2.37 -0.012,0.002 -0.024,0.003 -0.037,0.004 l -0.035,0.003 -0.035,0.002 c -5.468,0.34 -11.287,0.685 -16.984,0.685 -3.361,0 -6.275,-0.384 -8.643,-1.14 -2.348,-0.749 -4.339,-1.923 -5.589,-3.637 l -0.019,-0.027 c -1.104,-1.56 -1.618,-3.387 -1.643,-5.304 -0.024,-1.897 0.426,-3.88 1.237,-5.853 0.218,-0.529 0.516,-1.063 0.929,-1.518 6.77,-7.486 6.942,-7.949 8.603,-7.944 2.172,0.005 3.355,3.571 5.276,4.585 2.522,1.332 6.107,1.105 8.959,1.1 -3.042,-7.589 -6.602,-16.591 -9.415,-23.061 -1.334,-0.888 -3.375,-0.66 -6.02,-2.759 -3.537,-2.788 -3.229,-6.776 -1.282,-9.388 l 6.152,-6.804 c 1.458,-1.616 2.388,-2.701 5.87,-2.701 2.817,0 6.341,1.937 7.929,2.767 0.826,0.432 1.309,0.91 3.569,0.91 4.694,0 10.874,0.896 14.833,3.04 1.688,0.931 3.306,4.4 2.014,5.833 -6.637,7.341 -7.245,7.639 -7.789,7.797 3.849,8.184 9.327,20.223 11.666,24.918 4.313,0 8.754,0.114 12.763,0.227 l 0.047,0.002 0.046,0.003 c 3.131,-0.059 3.599,-0.621 2.124,-2.559 -1.711,-1.811 -5.336,-6.38 -7.484,-10.475 l -0.015,-0.031 c -2.496,-5.13 -3.452,-8.649 -3.452,-12.18 0,-3.154 1.166,-6.013 3.074,-8.122 4.031,-4.458 8.168,-10.433 14.174,-10.433 11.984,0 19.913,4.189 27.937,13.1 1.487,-4.099 9.108,-12.817 13.4,-12.817 5.553,0 13.101,4.977 18.968,9.293 3.017,-3.927 7.016,-9.576 11.965,-9.576 6.764,0 12.998,3.287 18.633,7.032 3.78,-4.18 6.392,-6.749 10.518,-6.749 3.198,0 6.051,2.568 7.488,5.742 1.68,3.413 8.334,14.224 14.78,20.842 3.689,3.789 5.403,4.474 5.744,4.474 1.215,0 2.654,-1.051 3.867,-1.132 1.121,-2.944 2.153,-4.818 5.322,-8.378 0.703,-0.823 3.021,-3.173 1.94,-3.173 -4.874,0 -1.029,0.999 -5.415,1.423 -1.76,0.17 -5.545,-1.631 -8.245,-4.026 -1.604,-1.424 -2.483,-4.761 -0.472,-6.976 7.693,-9.551 12.792,-10.466 16.316,-10.466 3.521,0 12.731,3.611 16.119,6.251 1.777,1.384 4.219,5.228 4.219,7.582 0,4.106 -3.187,8.153 -5.866,11.262 -2.275,2.64 -3.239,4.398 -3.239,5.493 0,1.666 9.931,4.185 15.304,4.185 3.659,0 7.495,6.559 5.043,9.278 -6.68,7.389 -7.328,7.886 -8.069,8.32 -3.373,2.661 -15.644,5.056 -27.439,-5.306"
           style="fill:#231f20;fill-opacity:1;fill-rule:evenodd;stroke:none"
           id="path871" />
        <path
           d="m 476.605,49.491 c -7.109,-6.061 -15.137,-11.606 -18.759,-11.606 -2.008,0 -2.273,1.479 -2.008,3.983 0.669,4.78 3.347,12.178 6.159,17.072 1.339,2.277 2.143,3.528 2.678,4.553 1.607,2.959 -1.874,6.486 -5.222,6.486 -1.607,0 -3.214,-0.909 -5.335,-3.641 -2.381,-3.187 -7.938,-11.381 -14.197,-17.641 -6.404,-5.918 -10.139,-8.764 -11.607,-8.764 -1.601,0 -2.27,1.252 -0.934,4.894 1.601,4.667 2.668,6.829 3.736,8.536 0.934,1.48 2.534,2.163 3.869,3.642 1.2,1.33 3.869,5.195 3.869,6.673 0,2.046 -4.003,4.887 -7.338,4.887 -1.601,0 -3.336,-0.909 -4.669,-2.614 -1.607,-2.501 -5.758,-9.208 -8.971,-17.279 -3.75,-8.412 -4.152,-11.254 -4.152,-13.072 0,-3.638 2.812,-7.162 5.624,-7.162 2.009,0 4.151,0.455 6.963,1.932 8.007,4.32 16.812,11.595 18.943,13.528 0.794,0.682 1.72,0.227 1.323,-1.023 -0.397,-1.195 -0.793,-2.445 -1.19,-4.264 -1.597,-6.592 0.793,-10.456 4.894,-10.456 1.985,0 5.691,0.796 9.44,2.387 3.336,1.375 8.3,3.902 14.554,9.343 -0.445,-1.34 -0.946,-2.654 -1.512,-3.914 -0.936,-2.283 -0.535,-3.538 0.933,-4.908 1.734,-1.712 3.602,-2.625 5.736,-2.625 2.134,0 4.135,1.483 5.469,4.451 1.734,3.539 8.537,14.61 15.207,21.458 3.468,3.561 5.869,5.148 7.337,5.148 1.067,0 2.267,-0.453 3.201,-0.907 1.067,-0.566 2.534,-0.113 4.135,1.474 1.334,1.134 2.668,3.401 3.067,5.214 0.536,2.381 -2.133,4.421 -5.068,4.421 -5.469,0 -9.871,-3.514 -13.872,-7.368 -4.669,-4.08 -9.338,-10.541 -10.805,-12.355 -0.934,-1.02 -1.735,-1.134 -1.468,0 0.667,3.803 2.535,9.053 4.002,11.222 0.934,1.369 2.001,2.739 2.001,3.766 0,2.055 -2.001,4.452 -4.535,4.452 -1.868,0 -4.269,-1.37 -6.003,-2.626 -2.401,-1.712 -3.468,-3.195 -4.269,-8.332 -0.286,-2.496 -0.645,-5.623 -1.226,-8.965 z m 65.601,20.195 c -4.418,0 -11.382,-1.923 -15.496,-4.978 -3.836,-2.602 -7.937,-7.022 -7.937,-11.102 0,-1.474 0.662,-3.401 1.323,-4.761 0.926,-1.76 3.043,-4.948 4.365,-6.428 1.852,-2.163 3.043,-4.212 3.043,-5.35 0,-0.683 -1.058,-1.594 -2.778,-1.594 -1.852,0 -2.646,0.228 -3.968,0.683 -1.191,0.932 -2.119,0.932 -3.324,0.365 -1.205,-0.454 -2.946,-1.361 -4.82,-3.176 -0.938,-0.68 -1.072,-1.587 -1.072,-2.381 0.536,-2.495 5.624,-4.197 9.216,-4.197 1.455,0 3.042,0.341 5.026,1.021 2.911,1.021 7.987,3.402 9.727,4.764 1.607,1.247 3.348,4.082 3.348,5.781 0,2.943 -2.009,6.226 -5.088,9.509 -2.277,2.604 -4.018,5.095 -4.018,7.246 0,3.51 9.239,6.453 17.541,6.453 2.277,0 4.285,0.905 4.285,3.054 0,1.358 -0.535,2.489 -2.276,3.507 -1.74,1.018 -3.749,1.584 -7.097,1.584 z M 644.029,42.105 c 0,-2.495 0.534,-4.65 1.868,-7.485 1.335,-2.722 5.739,-6.465 10.41,-6.465 3.481,0 6.561,0.567 10.042,1.928 3.213,1.361 8.703,3.97 10.177,4.991 1.071,0.794 1.606,0.68 0.937,-0.908 -0.536,-1.361 -1.339,-4.083 -2.946,-8.014 -3.08,-7.232 -7.231,-9.346 -10.311,-9.346 -1.338,0 -3.079,0.556 -4.686,2.003 -1.339,1.001 -4.013,2.559 -6.149,2.559 -1.735,0 -3.87,-0.556 -6.139,-2.67 -2.002,-1.669 -1.735,-3.792 0.267,-5.134 3.737,-2.459 12.021,-4.359 17.243,-4.359 2.544,0 5.49,0.894 8.302,2.347 5.892,3.018 11.382,8.481 13.39,13.154 1.875,4.356 5.357,15.018 6.829,20.915 1.072,4.083 3.08,8.053 6.16,10.662 1.339,1.02 1.875,2.041 0.937,3.175 -1.606,1.928 -3.213,2.722 -5.088,2.722 -2.41,0 -7.364,-2.608 -9.373,-4.196 -1.339,-1.134 -2.142,-2.268 -2.277,-4.083 -0.267,-3.796 -4.82,-8.125 -8.837,-11.202 -4.553,-3.533 -10.98,-5.811 -13.658,-5.811 -2.277,0 -4.419,1.709 -4.419,6.494 0,6.04 4.553,14.927 12.051,21.65 7.097,6.381 13.658,8.66 15.265,8.66 1.473,0 2.545,-0.342 4.151,-1.14 1.339,-0.716 3.348,-1.283 5.624,-0.829 1.607,0.339 4.955,2.489 6.16,3.62 1.741,1.584 0.937,3.62 -1.205,4.865 -2.009,1.131 -4.821,1.923 -7.901,1.923 -4.954,0 -12.587,-1.81 -19.817,-5.544 C 653.905,67.511 644.029,54.128 644.029,42.105 Z M 122.516,81.293 c -1.45,0 -3.164,-0.566 -4.087,-1.359 -0.66,-0.68 -1.451,-1.587 -1.451,-2.153 0,-0.567 -0.536,-1.246 -1.741,-1.926 -1.74,-1.02 -2.946,-2.606 -3.347,-3.626 -0.536,-1.586 0.401,-2.492 1.607,-3.512 0.803,-0.68 1.205,-1.473 0.535,-2.719 -1.308,-2.794 -9.251,-18.51 -14.15,-28.007 -0.661,-1.244 -1.985,-4.297 -1.985,-5.541 0,-3.844 3.044,-5.426 5.825,-5.426 1.721,0 4.236,0.791 6.222,2.713 2.913,2.94 3.31,4.41 3.31,9.837 0,0.678 0,1.582 0.535,3.618 1.072,3.844 5.089,11.306 7.499,15.376 0.536,0.792 1.071,1.018 1.875,-0.113 1.874,-2.487 8.034,-12.097 12.453,-18.09 4.174,-5.865 5.246,-8.245 6.05,-9.151 1.071,-1.246 3.885,-3.059 6.698,-3.059 2.143,0 3.349,1.02 4.554,2.379 1.206,1.36 1.34,3.059 0.67,3.966 -0.804,1.019 -1.607,1.699 -1.607,2.719 0,1.586 0,2.946 1.205,6.911 3.081,9.857 6.296,16.881 11.521,25.605 0.938,1.7 2.545,2.492 4.018,2.606 2.01,0.113 3.081,0.906 3.081,2.266 0,2.039 -1.473,8.383 -6.296,8.383 -1.607,0 -3.348,-0.566 -5.09,-2.039 -1.875,-1.586 -4.019,-4.418 -7.502,-11.669 -3.215,-6.231 -6.162,-12.916 -8.841,-19.827 -0.536,-1.246 -0.804,-1.473 -1.607,-0.227 -1.297,1.814 -13.081,18.696 -14.548,20.962 -0.791,1.246 -1.186,2.379 -1.186,2.946 0,0.453 0.395,0.906 0.923,1.926 0.659,0.793 1.061,2.039 0,3.512 -1.055,1.586 -2.374,2.719 -5.143,2.719 z m 51.849,-39.88 c -3.991,0 -8.779,-4.607 -8.779,-7.865 0,-2.247 2.527,-5.393 5.586,-5.393 4.39,0 10.775,3.483 10.775,7.078 0,2.472 -3.857,6.18 -7.582,6.18 z m 174.882,41.012 c -1.738,0 -3.343,-1.2 -4.145,-2.727 -0.535,-0.809 -0.802,-0.922 -2.005,-0.809 -5.482,0.34 -11.231,0.681 -16.847,0.681 -6.417,0 -10.695,-1.476 -12.433,-3.858 -1.605,-2.27 -1.605,-5.445 -0.134,-8.953 0.669,-1.697 1.872,-1.697 2.674,0 0.936,2.263 3.342,4.414 10.027,4.414 3.61,0 12.434,0 14.173,-0.227 0.935,-0.113 0.935,0 0.267,-1.584 -4.412,-9.957 -9.626,-24.78 -12.701,-31.117 -0.402,-0.905 -1.337,-1.468 -2.407,-1.69 -3.209,-0.885 -6.418,-2.656 -6.418,-5.867 0,-2.162 2.808,-4.23 5.215,-4.23 2.674,0 6.551,2.413 8.289,3.217 0.936,0.46 1.337,0.46 3.209,0.46 4.546,0 10.294,0.885 13.77,2.768 2.006,1.106 2.006,2.324 0.803,2.656 -2.674,0.664 -6.551,1.107 -10.161,1.329 -1.203,0 -1.738,0.226 -0.936,1.584 3.743,6.472 10.294,22.585 15.242,32.23 0.668,0.907 1.069,1.021 2.005,1.021 4.279,0 8.691,0.113 12.702,0.226 1.604,0.113 2.406,0 3.476,-0.453 1.069,-0.454 3.075,-1.589 4.545,-1.589 2.407,0 6.419,2.042 6.419,5.888 0,2.711 -2.274,6.064 -6.151,6.064 -1.203,0 -2.273,-0.559 -3.075,-1.565 -0.669,-0.782 -2.14,-2.123 -4.145,-2.123 -2.273,0 -9.893,0.112 -12.166,0.224 -2.14,0.104 -2.541,0.321 -3.343,1.085 -1.872,1.636 -3.877,3.058 -5.749,2.945 z m 19.906,-44.787 c 0,-5.306 4.026,-9.483 8.858,-9.483 9.652,0 18.359,4.516 24.775,10.951 5.469,5.193 7.47,10.612 7.47,15.128 0,4.403 -1.868,9.37 -6.67,11.402 -0.933,0.339 -1.067,0.678 -1.067,1.355 0,1.581 -0.267,4.403 -5.345,4.403 -2.277,0 -4.286,-0.677 -6.162,-2.258 -1.34,-1.129 -2.277,-1.693 -4.019,-1.693 -1.473,0 -2.544,-0.565 -3.482,-1.355 -0.938,-0.903 -1.608,-1.693 -1.742,-3.048 -0.134,-2.032 -1.208,-3.048 -2.281,-4.29 -1.611,-1.694 -5.1,-6.097 -7.114,-9.935 -2.416,-4.968 -3.221,-8.129 -3.221,-11.177 z m 12.616,1.844 c 0,4.742 5.359,13.888 11.386,19.872 0.804,0.903 2.144,1.92 3.082,1.92 2.411,0 3.348,-3.162 3.348,-5.984 0,-3.952 -4.554,-12.646 -8.439,-16.26 -2.545,-2.37 -4.822,-3.274 -6.564,-3.274 -1.205,0 -2.813,1.355 -2.813,3.726 z m 240.398,43.225 c -1.467,0 -3.867,-0.225 -6.801,-3.38 -2.81,-3.043 -11.013,-11.945 -24.059,-25.457 -0.672,-0.775 -1.075,-1.107 -2.151,-1.218 -1.471,-0.221 -3.068,-0.775 -5.197,-3.21 -1.197,-1.439 -1.33,-2.344 -1.33,-3.145 0,-0.573 -0.133,-1.145 -0.798,-1.947 -1.464,-1.584 -2.395,-2.611 -5.589,-5.919 -3.06,-2.966 -4.79,-5.476 -4.79,-7.073 0,-1.825 1.863,-4.334 4.524,-4.334 3.592,0 8.915,2.395 10.911,3.764 1.596,1.141 1.596,2.282 1.596,3.194 0,1.141 0,2.51 0.27,3.536 0.537,1.826 2.825,4.563 3.766,5.704 1.48,1.825 3.633,2.624 7.803,3.194 4.306,0.685 8.073,1.027 12.243,1.255 1.211,0 1.615,0 1.75,-0.799 0.264,-4.697 0.661,-8.589 1.455,-12.367 0.926,-4.35 3.572,-6.067 6.482,-6.067 4.783,0 10.541,2.976 10.541,8.357 0,1.144 -0.134,2.633 -2.276,2.29 -2.678,-0.459 -3.615,-0.115 -4.151,1.029 -0.268,0.917 -0.535,3.092 -1.071,7.442 0,0.668 0,0.779 1.071,0.89 3.883,0.443 6.963,0.996 10.177,2.324 3.079,1.44 3.347,2.879 0.803,3.211 -3.402,0.443 -7.553,0.555 -11.838,0.668 -0.535,0 -0.803,0.112 -0.937,0.901 -0.937,8.903 -0.937,16.565 -0.937,17.354 0,1.239 1.74,2.366 2.812,3.493 1.339,1.239 1.205,2.366 0.401,3.493 -1.071,1.465 -2.812,2.817 -4.68,2.817 z M 612.153,54.424 c -2.286,0 -4.169,-0.111 -6.724,-0.333 -1.345,-0.11 -1.345,0.222 -0.538,1.347 2.824,3.493 4.303,5.07 7.127,8.113 1.211,1.24 1.614,0.902 1.614,-0.563 0,-3.606 0.134,-4.846 -0.134,-7.663 0,-0.676 0.134,-0.901 -1.345,-0.901 z M 53.605,82.707 c -1.467,0 -3.867,-0.225 -6.8,-3.38 C 43.995,76.284 35.791,67.382 22.746,53.87 22.074,53.095 21.67,52.763 20.594,52.652 c -1.47,-0.221 -3.067,-0.775 -5.196,-3.21 -1.198,-1.439 -1.331,-2.344 -1.331,-3.145 0,-0.573 -0.133,-1.145 -0.798,-1.947 -1.464,-1.584 -2.395,-2.611 -5.588,-5.919 -3.061,-2.966 -4.79,-5.476 -4.79,-7.073 0,-1.825 1.862,-4.334 4.524,-4.334 3.592,0 8.914,2.395 10.91,3.764 1.597,1.141 1.597,2.282 1.597,3.194 0,1.141 0,2.51 0.269,3.536 0.538,1.826 2.825,4.563 3.767,5.704 1.48,1.825 3.632,2.624 7.803,3.194 4.305,0.685 8.072,1.027 12.243,1.255 1.211,0 1.615,0 1.749,-0.799 0.265,-4.697 0.662,-8.589 1.456,-12.367 0.926,-4.35 3.571,-6.067 6.482,-6.067 4.783,0 10.541,2.976 10.541,8.357 0,1.144 -0.134,2.633 -2.277,2.29 -2.677,-0.459 -3.615,-0.115 -4.15,1.029 -0.268,0.917 -0.536,3.092 -1.072,7.442 0,0.668 0,0.779 1.072,0.89 3.883,0.443 6.962,0.996 10.176,2.324 3.08,1.44 3.348,2.879 0.804,3.211 -3.402,0.443 -7.553,0.555 -11.838,0.668 -0.536,0 -0.804,0.112 -0.937,0.901 -0.938,8.903 -0.938,16.565 -0.938,17.354 0,1.239 1.741,2.366 2.812,3.493 1.339,1.239 1.205,2.366 0.402,3.493 -1.072,1.465 -2.812,2.817 -4.681,2.817 z M 43.591,54.424 c -2.286,0 -4.169,-0.111 -6.724,-0.333 -1.345,-0.11 -1.345,0.222 -0.538,1.347 2.825,3.493 4.304,5.07 7.128,8.113 1.21,1.24 1.614,0.902 1.614,-0.563 0,-3.606 0.133,-4.846 -0.135,-7.663 0,-0.676 0.135,-0.901 -1.345,-0.901 z m 212.472,27.435 c -3.347,0 -5.356,-1.133 -7.231,-2.719 -1.071,-1.02 -2.41,-2.38 -4.954,-4.079 -7.097,-4.872 -25.16,-15.409 -27.43,-15.409 -0.801,0 -0.801,0.454 -0.267,1.587 2.403,5.503 4.54,9.565 5.741,11.031 1.603,2.031 1.737,4.401 1.469,5.642 -0.401,1.918 -2.136,4.513 -5.34,4.513 -3.205,0 -6.542,-2.143 -7.61,-3.498 -0.935,-1.354 -1.068,-2.482 -1.068,-3.384 0,-1.58 0.267,-3.724 -1.072,-6.206 -2.412,-4.739 -10.223,-22.228 -12.739,-28.321 -3.731,-8.913 -0.397,-13.427 2.119,-13.427 2.118,0 4.103,1.129 5.692,2.821 2.119,2.031 3.575,3.836 5.164,5.868 1.062,1.353 1.062,2.82 0,3.61 -0.662,0.564 -0.794,2.144 0.264,4.4 0.53,1.467 1.869,4.852 2.806,6.883 0.402,1.016 1.071,1.241 1.607,0.79 0.402,-0.564 1.741,-1.693 2.678,-2.595 4.821,-4.099 13.524,-13.107 18.479,-18.962 2.008,-2.139 3.347,-2.815 5.49,-2.815 3.347,0 11.382,3.941 11.382,8.22 0,2.154 -1.741,5.095 -3.884,5.095 -1.339,0 -2.544,-0.679 -3.615,-1.697 -0.937,-0.905 -1.741,-1.356 -2.812,0 -2.41,2.828 -9.775,10.295 -13.792,14.141 -0.804,0.679 -0.937,1.245 0.937,2.263 7.9,4.299 19.416,10.408 25.978,14.708 2.276,1.47 3.749,2.375 5.088,2.941 1.473,0.566 3.08,2.036 3.08,4.073 -0.134,2.486 -3.75,4.526 -6.16,4.526 z m 9.358,-40.446 c -3.991,0 -8.78,-4.607 -8.78,-7.865 0,-2.247 2.528,-5.393 5.587,-5.393 4.39,0 10.775,3.483 10.775,7.078 0,2.472 -3.858,6.18 -7.582,6.18 z m -184.79,0 c -3.99,0 -8.779,-4.607 -8.779,-7.865 0,-2.247 2.527,-5.393 5.587,-5.393 4.389,0 10.775,3.483 10.775,7.078 0,2.472 -3.858,6.18 -7.583,6.18"
           style="fill:#d3d2d2;fill-opacity:1;fill-rule:evenodd;stroke:none"
           id="path873" />
      </g>
    </g>
  </g>
</svg>
