<?xml version="1.0" encoding="UTF-8" standalone="no"?>
<svg
   width="110.81343mm"
   height="12.313179mm"
   viewBox="0 0 110.81343 12.313179"
   version="1.1"
   id="svg5"
   xmlns="http://www.w3.org/2000/svg"
   xmlns:svg="http://www.w3.org/2000/svg">
  <defs
     id="defs2" />
  <g
     id="layer1"
     transform="translate(-17.880922,-119.53389)">
    <g
       id="g830"
       transform="matrix(0.35277777,0,0,-0.35277777,4.4137366,252.24875)">
      <path
         d="m 131.7855,370.605 -0.9714,0.9357 c -0.1505,0.146 -0.3402,0.273 -0.5726,0.3685 -0.2996,0.123 -0.6466,0.1834 -1.0369,0.1834 -0.5738,0 -1.1614,-0.1193 -1.624,-0.4283 -0.2353,-0.1573 -0.4323,-0.3606 -0.5681,-0.6086 -0.1357,-0.2475 -0.2012,-0.5224 -0.2012,-0.8127 0,-0.4955 0.2676,-0.9459 0.6015,-1.2688 l 1.7212,-1.6577 c -0.4731,-0.2248 -1.0049,-0.5304 -1.5905,-0.9442 -1.4806,-1.0454 -2.9138,-2.4956 -4.0295,-3.8855 -0.8356,-0.7922 -2.44,-1.9944 -4.0476,-3.0277 -0.2755,-0.1771 -0.5411,-0.3427 -0.7945,-0.4957 1.0709,2.7663 3.1286,7.1713 6.1489,11.7601 0.2871,0.4175 0.5715,0.8912 0.6318,1.3952 0.0315,0.2644 0.002,0.5335 -0.1083,0.8019 -0.1091,0.2653 -0.2871,0.5077 -0.5193,0.7328 l -1.9652,1.8929 c -0.1678,0.1625 -0.3756,0.2588 -0.5519,0.3147 -0.1806,0.057 -0.375,0.0861 -0.5604,0.0861 -0.2322,0 -0.455,-0.0558 -0.6506,-0.1428 -0.1976,-0.0882 -0.3798,-0.2126 -0.5377,-0.3668 l -0.01,-0.01 c -0.5828,-0.5935 -2.1112,-2.9191 -5.0703,-8.8219 -0.0887,-0.1772 -0.1752,-0.3521 -0.2596,-0.5247 l -1.4094,1.3569 c -0.1738,0.1664 -0.3889,0.2999 -0.637,0.3926 -0.2642,0.0987 -0.5575,0.148 -0.8688,0.148 -1.1659,0 -2.2538,-0.6761 -3.3605,-1.5696 -0.3002,-0.242 -0.608,-0.5099 -0.9178,-0.794 l -1.6455,1.5849 c -0.0851,0.0828 -0.1826,0.161 -0.294,0.2285 -0.2151,0.1304 -0.4844,0.2228 -0.7943,0.2228 -0.8231,0 -1.8615,-1.0134 -1.9068,-1.0525 -0.5494,-0.4799 -0.6934,-1.0749 -0.887,-2.0007 -0.1236,-0.6242 -0.3367,-1.6027 -0.5919,-2.6615 -0.2508,-0.2095 -0.4983,-0.4096 -0.7421,-0.6009 0.2206,0.5179 0.3484,1.0698 0.3484,1.6132 0,0.6239 -0.2228,1.1667 -0.6409,1.5687 l -1.9655,1.8927 c -0.0171,0.0164 -0.0343,0.0326 -0.0519,0.0484 -0.3606,0.324 -0.8212,0.5188 -1.3144,0.5936 l -0.5046,0.4856 c -0.0397,0.0388 -0.0831,0.0757 -0.1293,0.1105 -0.2962,0.2226 -0.684,0.3382 -1.1185,0.3382 -1.0851,0 -2.2405,-0.8521 -3.0373,-1.5449 -0.3771,-0.3277 -0.7339,-0.6749 -1.0469,-1.0012 -0.6383,-0.1216 -1.436,-0.2191 -2.2617,-0.2191 -0.2946,0 -0.5599,0.0111 -0.7966,0.0309 -0.0649,0.0865 -0.1383,0.1715 -0.2219,0.252 l -1.9653,1.8927 c -0.0601,0.0578 -0.1247,0.1131 -0.195,0.1644 -0.277,0.2027 -0.6321,0.3413 -1.0556,0.3413 -0.3442,0 -0.6619,-0.1103 -0.9156,-0.2395 -0.2608,-0.133 -0.5032,-0.3107 -0.7101,-0.5049 -0.3861,-0.3628 -0.7747,-0.9068 -0.7747,-1.4677 0,-0.6838 0.3285,-1.3536 0.7849,-1.7978 -0.6931,-1.4842 -2.1957,-3.1107 -3.6703,-4.348 0.3084,0.6474 0.6403,1.1843 1.0298,1.737 l 0.0054,0.008 0.0051,0.008 c 0.3991,0.6043 0.7413,1.1228 0.7946,1.8737 l 0.0014,0.0196 v 0.0198 c 0,0.4626 -0.0791,1.0154 -0.2608,1.4746 -0.0901,0.2273 -0.2211,0.4725 -0.4175,0.6721 -0.0094,0.01 -0.019,0.0193 -0.029,0.0289 l -1.9655,1.8927 c -0.0958,0.0924 -0.2143,0.1808 -0.3592,0.2492 -0.1635,0.0773 -0.3503,0.123 -0.5524,0.123 -0.5094,0 -0.9641,-0.2104 -1.3204,-0.4502 -0.3651,-0.2463 -0.6987,-0.5714 -0.9816,-0.9119 -0.5531,-0.6653 -1.012,-1.5106 -1.1112,-2.1696 -0.0363,-0.2407 -0.0207,-0.4782 0.0847,-0.6956 0.0542,-0.1117 0.125,-0.2033 0.2021,-0.277 l 0.0431,-0.0394 c -0.0124,-0.0241 -0.0272,-0.0544 -0.0459,-0.0947 -0.1193,-0.2531 -0.2307,-0.4957 -0.3348,-0.7279 -1.3376,-1.1398 -2.8034,-2.2893 -4.066,-3.1552 0.4215,1.2095 0.9777,2.5248 1.6756,3.6878 0.0683,0.114 0.1273,0.2152 0.18,0.3045 0.1808,0.309 0.3172,0.5403 0.46,0.8467 0.1299,0.2795 0.1307,0.5641 0.0635,0.8132 -0.0657,0.2447 -0.1987,0.4644 -0.3574,0.6458 -0.0349,0.0394 -0.0714,0.0782 -0.1103,0.1156 l -1.9652,1.893 c -0.1378,0.1335 -0.298,0.2512 -0.4734,0.343 -0.2217,0.1162 -0.4986,0.2072 -0.8028,0.2072 -0.3742,0 -0.6999,-0.1292 -1.0063,-0.3662 -0.2798,-0.2169 -0.5695,-0.5434 -0.9059,-0.9876 -0.0854,-0.1125 -0.1883,-0.2449 -0.3096,-0.4017 -0.6372,-0.8203 -1.6429,-2.1155 -2.8137,-3.3928 0.2733,0.4099 0.5012,0.8428 0.5012,1.1438 0,0.2812 -0.1086,0.5292 -0.2585,0.7294 -0.0559,0.0737 -0.1177,0.1423 -0.1843,0.2058 l -1.9655,1.8929 c -0.1111,0.1058 -0.2347,0.1973 -0.3617,0.2747 -0.3971,0.2429 -0.9094,0.3988 -1.4,0.3988 -0.3133,0 -0.6004,-0.0822 -0.8544,-0.225 -0.2449,-0.1375 -0.4493,-0.3249 -0.6256,-0.5307 l -0.0116,-0.0133 -0.0108,-0.0139 c -0.4445,-0.5797 -1.9585,-2.9154 -3.0132,-5.3033 -0.1199,-0.2707 -0.2291,-0.525 -0.3286,-0.7645 -0.108,-0.0899 -0.1987,-0.1948 -0.2809,-0.305 -0.445,-0.5397 -1.0613,-1.2787 -1.9335,-1.8939 -0.8694,-0.6128 -1.9763,-1.0896 -3.3962,-1.0896 -0.5082,0 -1.1253,0.1324 -1.7583,0.3348 1.4706,1.3263 3.7171,3.2309 4.2097,3.6337 0.7753,0.595 1.2433,0.8413 1.5293,0.8476 l 0.7345,-0.0335 h 0.0184 c 0.3206,0 0.5845,0.0984 0.7923,0.2401 0.1871,0.1276 0.3217,0.2872 0.4033,0.3861 l 0.0601,0.0728 0.0346,0.0848 c 0.0105,0.0258 0.0233,0.0544 0.0448,0.1012 0.0513,0.1139 0.184,0.3875 0.2001,0.6894 0.0088,0.1593 -0.0127,0.335 -0.0895,0.5153 -0.0672,0.1582 -0.1698,0.3033 -0.3042,0.4343 l -1.9655,1.8927 c -0.0193,0.0187 -0.0392,0.0371 -0.0596,0.055 l -0.011,0.01 -0.0116,0.009 c -0.5792,0.4683 -1.4086,0.7317 -2.0067,0.7317 -0.5167,0 -0.879,-0.1755 -1.076,-0.2668 -0.0278,-0.013 -0.1588,-0.0697 -0.2727,-0.1522 -0.0207,-0.0147 -0.1794,-0.1171 -0.6285,-0.1171 -0.5297,0 -1.3901,0.0618 -2.5548,0.1627 -1.681,0.2325 -2.6413,0.3402 -3.6128,0.3402 -1.3776,0 -2.1146,-0.6863 -2.9392,-1.4176 -0.324,-0.2897 -0.5151,-0.6574 -0.5655,-1.0463 -0.0502,-0.388 0.0402,-0.7886 0.2619,-1.1528 0.1769,-0.2906 0.544,-0.7322 0.9371,-1.1104 l 1.8695,-1.8002 c -0.1364,-0.1231 -0.2719,-0.2461 -0.4065,-0.3688 -0.2857,0.161 -0.6072,0.2761 -0.9734,0.2761 h -0.025 l -0.0249,-0.002 c -0.5083,-0.0315 -0.9715,-0.2945 -1.2915,-0.6273 -0.3311,-0.3444 -0.5655,-0.8181 -0.5655,-1.3621 0,-0.2917 -0.0247,-0.2174 -0.0249,-0.218 -0.0902,-0.0776 -0.1942,-0.1859 -0.2634,-0.2571 -0.2171,-0.2239 -1.6441,-1.5916 -1.6441,-2.4284 0,-0.2886 0.1316,-0.5136 0.254,-0.6633 0.0414,-0.0502 0.085,-0.0958 0.1267,-0.1358 l 1.9653,-1.893 c 0.0799,-0.0765 0.1525,-0.1326 0.1856,-0.159 l 0.0372,-0.0292 0.0414,-0.0247 c 0.2367,-0.1406 0.5281,-0.1916 0.7942,-0.1848 0.2807,0.007 0.586,0.078 0.8774,0.2328 l 0.045,0.0238 0.0408,0.0297 c 0.4893,0.3552 1.8434,1.3952 2.3349,1.87 0.0287,0.0284 0.0471,0.0488 0.0579,0.063 l 0.0054,-0.003 c 2.5324,-1.2776 4.5632,-2.2366 6.7269,-2.2366 1.9077,0 3.4908,0.7138 4.7109,1.6126 l 1.1576,-1.1148 c 0.0896,-0.0856 0.1868,-0.1641 0.292,-0.2319 0.2307,-0.1499 0.5252,-0.2659 0.8597,-0.2659 0.7147,0 1.2958,0.1933 2.0861,0.5862 1.025,0.5094 2.3808,1.3558 3.7649,2.4038 0.0037,-0.008 0.0077,-0.017 0.0114,-0.0258 0.108,-0.2407 0.2537,-0.4547 0.4376,-0.6318 l 1.9656,-1.893 c 0.0836,-0.0805 0.1749,-0.1537 0.2744,-0.218 0.3214,-0.2081 0.6916,-0.305 1.0661,-0.305 0.629,0 1.6016,0.1726 2.9211,0.8028 0.6803,0.3248 1.6789,0.8756 2.8635,1.6931 l 1.8601,-1.7909 c 0.1905,-0.1843 0.4031,-0.3257 0.6203,-0.4269 0.2676,-0.1242 0.5573,-0.1945 0.8336,-0.1945 0.6803,0 1.4386,0.0887 2.6793,0.5933 l 0.01,0.004 0.0102,0.004 c 2.529,1.116 6.4686,4.0794 8.5322,7.6519 0.0309,-0.005 0.063,-0.0103 0.0961,-0.0154 -0.4799,-1.078 -0.7613,-2.0718 -0.7613,-2.8145 0,-1.0567 0.4087,-1.927 1.0561,-2.5512 l 1.9656,-1.8929 c 0.0371,-0.036 0.0757,-0.0712 0.1148,-0.1058 0.7058,-0.6236 1.6452,-0.9575 2.5758,-0.9575 1.7448,0 3.9028,0.5715 6.05,1.6098 0.4127,0.1995 0.8269,0.4172 1.2396,0.6528 l 1.6569,-1.5953 c 0.1638,-0.1579 0.3532,-0.2886 0.5564,-0.3858 0.2537,-0.1213 0.544,-0.1979 0.8444,-0.1979 0.3243,0 0.6418,0.0791 0.9304,0.2696 0.2701,0.1783 0.4736,0.4275 0.6429,0.7067 l 0.007,0.0105 0.006,0.0107 c 1.5066,2.7321 3.2334,5.3555 5.4153,7.4415 0.4799,0.459 0.892,0.8408 1.2489,1.1098 0.4107,0.3101 0.5624,0.3314 0.5664,0.3314 0.1326,0 0.29,-0.0584 0.5425,-0.1948 0.0553,-0.0351 0.114,-0.066 0.1746,-0.0927 -1.0349,-2.6849 -1.3674,-4.4214 -1.3674,-5.0181 0,-0.6806 0.1621,-1.3312 0.4944,-1.8349 0.0893,-0.1355 0.1936,-0.2642 0.3138,-0.3807 l 1.9655,-1.8927 c 0.106,-0.1026 0.2245,-0.1956 0.3566,-0.2752 0.2872,-0.1735 0.625,-0.2747 0.9947,-0.2747 1.5862,0 3.6691,1.0122 5.506,2.1671 l 1.442,-1.389 c 0.1165,-0.1122 0.2409,-0.2092 0.3662,-0.2922 0.4898,-0.3252 1.069,-0.4828 1.4315,-0.4828 0.8617,0 1.8119,0.411 2.8571,1.1339 0.5782,0.3999 1.4533,1.1216 2.2648,1.83 0.0525,-0.0589 0.1066,-0.1156 0.1622,-0.1701 0.008,-0.008 0.0167,-0.0164 0.0252,-0.0246 l 1.9655,-1.893 c 0.2625,-0.2528 0.563,-0.4652 0.8864,-0.6177 0.3325,-0.1573 0.7062,-0.2585 1.0931,-0.2585 1.0916,0 2.469,0.6486 3.7536,1.4902 l 1.2563,-1.2101 c 0.009,-0.008 0.0176,-0.0167 0.0267,-0.025 0.1868,-0.1712 0.4119,-0.2985 0.6264,-0.3917 0.4224,-0.1829 0.9204,-0.2823 1.3221,-0.2823 0.4845,0 1.0984,0.1247 1.6319,0.2993 0.8714,0.2852 2.2779,0.8799 2.9614,1.3294 0.2792,0.1834 0.5329,0.4315 0.7381,0.705 l 1.6971,-1.6347 c 0.009,-0.008 0.0179,-0.0167 0.0267,-0.025 0.1871,-0.1712 0.4118,-0.2985 0.6267,-0.3917 0.4224,-0.1829 0.9201,-0.2823 1.3218,-0.2823 0.4844,0 1.0984,0.1247 1.6322,0.2993 0.8714,0.2852 2.2776,0.8799 2.9611,1.3294 0.3534,0.2322 0.6661,0.5678 0.8912,0.9275 0.2242,0.3586 0.394,0.7926 0.394,1.234 0,1.0411 -0.8249,2.3082 -1.624,3.253 l -0.0133,0.0156 -0.0145,0.015 c -0.6882,0.7166 -0.9215,1.1789 -0.9215,1.6262 0,0.148 0.0802,0.3643 0.3203,0.635 0.2367,0.2665 0.5919,0.542 1.0355,0.7929 0.8952,0.5054 2.0378,0.8461 3.0271,0.8461 0.0817,0 0.1644,0.002 0.2475,0.007 0.0127,-0.0833 0.032,-0.1658 0.0572,-0.2483 l 0.004,-0.0108 0.004,-0.0108 c 0.0233,-0.0669 0.0584,-0.0901 -0.072,-0.4113 -0.4138,-1.0196 -1.3209,-3.3874 -1.5743,-4.06 -0.1642,-0.4351 -0.2427,-0.8714 -0.2112,-1.3037 0.0312,-0.4348 0.1723,-0.8487 0.4221,-1.235 0.1879,-0.2909 0.3883,-0.5409 0.6029,-0.7481 l 1.9658,-1.893 c 0.1372,-0.1326 0.2807,-0.2483 0.4303,-0.3461 0.3929,-0.2562 0.8175,-0.3815 1.2493,-0.3815 0.6108,0 1.3526,0.1797 2.5029,0.6046 0.8533,0.3152 1.9239,0.9017 3.0391,1.6404 l 1.5692,-1.5114 c 0.1123,-0.1077 0.2381,-0.2061 0.3793,-0.2903 0.2877,-0.1712 0.6299,-0.2761 1.0091,-0.2761 1.2646,0 3.121,1.2847 3.5796,1.5877 0.0213,0.0142 0.0414,0.0275 0.0618,0.0408 -0.6335,-2.0531 -1.3736,-3.7757 -2.658,-5.3447 -0.8391,-1.0256 -1.7728,-1.8119 -2.6796,-2.3377 -0.9133,-0.5295 -1.7615,-0.7733 -2.4412,-0.7733 -0.9573,0 -1.4582,0.3084 -1.789,0.551 -0.3177,0.26 -1.0122,0.798 -1.7464,0.798 -0.6125,0 -1.2481,-0.2826 -1.6991,-0.5933 -0.2364,-0.1627 -0.4595,-0.3583 -0.6293,-0.5752 -0.1635,-0.2092 -0.3189,-0.4904 -0.3189,-0.8115 0,-0.349 0.1925,-0.6287 0.3887,-0.8218 0.003,-0.003 0.006,-0.006 0.009,-0.009 l 1.9656,-1.8929 c 0.1973,-0.1908 0.4453,-0.345 0.693,-0.4646 0.4961,-0.2398 1.1271,-0.406 1.6796,-0.406 0.5737,0 0.7959,-0.0518 1.1712,-0.1408 l 0.0349,-0.008 0.0357,-0.005 c 0.5026,-0.0722 1.1605,-0.1054 1.7181,-0.1054 1.4981,0 4.3217,0.8725 5.9621,2.1246 l 0.0122,0.009 c 3.096,2.471 4.9575,5.8034 6.0885,9.8263 l 0.004,0.0153 c 0.0695,0.2756 0.2205,0.864 0.4116,1.6081 0.4813,1.8715 1.2112,4.7106 1.4868,5.8261 0.0584,0.2364 0.0915,0.5468 0.0394,0.8322 0.3849,0.2271 0.7064,0.5032 0.9459,0.8085 0.286,0.3651 0.47,0.792 0.47,1.2333 0,0.4309 -0.1999,1.0242 -0.667,1.5171 -0.0264,0.0278 -0.0536,0.055 -0.0819,0.0822 l -1.9653,1.893 c -0.2287,0.2211 -0.5173,0.4207 -0.8733,0.5692 -0.4006,0.167 -0.8683,0.2619 -1.4026,0.2619 -0.8408,0 -2.2893,-0.4654 -3.3565,-0.932 -1.5701,-0.7005 -3.6295,-1.9573 -5.2543,-3.6258 l -0.0139,-0.0125 -0.0184,-0.0195 c -0.0105,-0.0111 -0.0205,-0.0219 -0.0309,-0.0329 -0.0443,-0.0474 -0.0891,-0.0947 -0.1347,-0.1423 -1.19,-1.2453 -2.8148,-2.6612 -4.4121,-3.7786 -0.3782,-0.2645 -0.7441,-0.5049 -1.0945,-0.7189 0.7929,1.6648 1.7972,3.4464 2.7559,4.7245 0.3064,0.4207 0.4118,0.8496 0.3659,1.2388 -0.0399,0.3413 -0.1973,0.6483 -0.4277,0.8685 l -1.9656,1.8927 c -0.0238,0.023 -0.0482,0.0448 -0.0737,0.0655 -0.1828,0.1511 -0.5215,0.3886 -1.008,0.3886 -0.4819,0 -0.9535,-0.2647 -1.2795,-0.4788 -0.3793,-0.2488 -0.7804,-0.5805 -1.1577,-0.9328 -0.3455,-0.3226 -0.69,-0.6801 -0.9952,-1.0316 l -1.7011,1.6382 c -0.1797,0.1729 -0.4045,0.314 -0.6443,0.4254 l -0.01,0.005 -0.01,0.004 c -0.5145,0.2217 -1.0953,0.2872 -1.7935,0.2872 -1.3697,0 -3.1201,-0.5672 -4.3392,-1.3723 -0.288,-0.1978 -0.5738,-0.4203 -0.8451,-0.661 l -1.362,1.3119 c -0.18,0.1729 -0.4045,0.314 -0.6443,0.4254 l -0.01,0.005 -0.01,0.004 c -0.5145,0.2217 -1.095,0.2872 -1.7935,0.2872 -1.3697,0 -3.12,-0.5672 -4.3392,-1.3723 -0.6869,-0.4717 -1.3584,-1.0819 -1.8652,-1.7501 -0.5001,-0.6599 -0.8827,-1.4332 -0.8827,-2.2153 0,-0.115 0.008,-0.2321 0.0241,-0.3495 -0.8638,-0.9439 -1.9778,-2.0661 -3.0745,-2.9783 -0.5099,-0.4241 -0.9748,-0.7668 -1.383,-1.027 0.125,1.6038 0.8186,3.295 1.9205,5.2699 l 0.0223,0.0399 0.0159,0.0428 c 0.0655,0.1775 0.1707,0.4972 0.0564,0.8507 -0.0606,0.1868 -0.1692,0.3478 -0.3135,0.4867 l -1.9655,1.8927 c -0.1443,0.1389 -0.3246,0.2563 -0.5278,0.3555 -0.216,0.1052 -0.4703,0.176 -0.7563,0.165 -0.114,-0.005 -0.2228,-0.0216 -0.3271,-0.0485 l -0.0695,0.0675 c 0.1219,0.1187 0.2327,0.2483 0.3246,0.3858 0.0581,0.0873 0.1125,0.1836 0.1565,0.2868 l 0.934,-0.8991 c 0.0637,-0.061 0.1312,-0.1165 0.1998,-0.167 0.3447,-0.252 0.7999,-0.4209 1.2237,-0.4209 0.6007,0 1.2498,0.18 1.7601,0.4725 0.259,0.1485 0.5057,0.3396 0.6925,0.5751 0.1893,0.239 0.3234,0.5335 0.3234,0.868 0,0.267 -0.0972,0.5108 -0.2248,0.7112 -0.0839,0.1324 -0.1876,0.2563 -0.3036,0.3682 l -1.9655,1.893 c -0.0604,0.0587 -0.1245,0.1143 -0.1908,0.1661 -0.3739,0.2934 -0.9068,0.5383 -1.4797,0.5383 -0.7444,0 -1.3657,-0.2766 -1.7963,-0.6607 -0.2438,-0.2174 -0.4377,-0.4799 -0.5573,-0.7611 z m 31.6072,-0.6137 1.9652,-1.8927 c 0.2228,-0.2146 0.4967,-0.3966 0.8212,-0.5417 0.2957,-0.1321 0.7379,-0.2753 1.1699,-0.1548 0.2534,0.0706 0.4671,0.2242 0.5927,0.445 0.1123,0.1973 0.1307,0.4051 0.1154,0.5814 -0.0372,0.6353 0.007,1.5475 0.2559,2.2431 l 0.007,0.0207 0.006,0.0215 c 0.066,0.2418 0.0697,0.4907 -0.009,0.7299 -0.0646,0.1956 -0.1783,0.3657 -0.3257,0.5069 l -1.9653,1.893 c -0.0343,0.0323 -0.07,0.0635 -0.1071,0.0927 -0.3858,0.3033 -0.9125,0.4189 -1.4222,0.4189 -0.1967,0 -0.4218,-0.0147 -0.648,-0.0751 -0.235,-0.0629 -0.4631,-0.1735 -0.6582,-0.3526 -0.3773,-0.3467 -0.5247,-0.8501 -0.5683,-1.4321 l -0.002,-0.0207 v -0.0207 c 0,-0.5156 0.0397,-1.0499 0.1652,-1.4695 0.0916,-0.3058 0.2472,-0.6032 0.4882,-0.8708 0.0377,-0.0419 0.0771,-0.0827 0.1185,-0.1224 z m -15.2479,-6.8976 c -0.0479,-0.2024 -0.0742,-0.407 -0.0742,-0.6123 0,-0.5575 0.1987,-1.1585 0.4592,-1.633 0.2667,-0.4856 0.8708,-1.2577 1.3243,-1.8411 0.0496,-0.0643 0.1125,-0.1451 0.1789,-0.2228 0.4221,-0.4941 0.6593,-0.9448 0.6999,-1.1806 -0.0131,-0.0105 -0.0321,-0.0247 -0.0576,-0.0408 -0.121,-0.0771 -0.2883,-0.1372 -0.4124,-0.1591 -0.3118,-0.0538 -0.5154,-0.01 -0.7923,0.0905 -0.1933,0.098 -0.4076,0.1621 -0.6562,0.17 -0.2501,0.008 -0.4859,-0.0433 -0.6934,-0.1003 l -0.03,-0.008 -0.0292,-0.0105 c -0.368,-0.1335 -0.7121,-0.3345 -1.0817,-0.5976 -0.2912,0.7946 -0.8677,1.6212 -1.4312,2.2876 l -0.0131,0.0156 -0.0144,0.015 c -0.6883,0.7166 -0.9219,1.1789 -0.9219,1.6262 0,0.148 0.0805,0.3643 0.3206,0.635 0.2367,0.2665 0.5916,0.542 1.0355,0.7929 0.6503,0.367 1.4312,0.6474 2.1892,0.7735 z m 114.1929,-5.3495 c 0.0839,-0.8901 0.4688,-1.6302 1.0386,-2.1799 l 1.9655,-1.8929 c 0.0374,-0.036 0.0757,-0.0712 0.1148,-0.1058 0.7061,-0.6236 1.6455,-0.9575 2.5756,-0.9575 1.7453,0 3.903,0.5715 6.0503,1.6098 0.4113,0.1987 0.824,0.4155 1.2356,0.6503 l 1.798,-1.732 c 0.0652,-0.0627 0.1344,-0.1213 0.2066,-0.1749 0.2742,-0.2033 0.6242,-0.3532 1.0233,-0.3532 0.7039,0 1.5682,0.265 2.5509,0.7583 l 0.0168,0.009 0.0161,0.009 c 0.3093,0.1755 0.62,0.3598 0.94,0.5627 -0.1959,-0.4683 -0.4003,-0.9561 -0.6078,-1.451 -1.0989,-2.6212 -2.3771,-5.662 -2.6115,-6.5577 -0.1931,-0.7379 -0.2149,-1.3507 -0.0655,-1.8173 0.0689,-0.2149 0.182,-0.4224 0.3575,-0.5902 l 1.9652,-1.8927 c 0.0182,-0.0175 0.0369,-0.0346 0.0561,-0.051 0.2177,-0.1842 0.4995,-0.2911 0.8065,-0.2911 0.3345,0 0.6562,0.1168 0.9238,0.3149 0.2659,0.197 0.4805,0.4737 0.637,0.8161 0.6278,1.3513 1.978,3.3327 2.5809,3.983 0.2364,0.2463 0.4969,0.57 0.559,0.9433 0.0343,0.2064 0.008,0.4227 -0.1032,0.6291 -0.0601,0.1114 -0.1375,0.2077 -0.2256,0.2925 l -0.3762,0.362 c 0.008,0.0938 0.051,0.2928 0.216,0.6789 0.7319,1.4312 2.66,5.9451 3.2774,7.4256 0.0584,-0.5046 0.2362,-0.959 0.489,-1.3187 0.0856,-0.1213 0.1828,-0.2361 0.2911,-0.3398 l 1.9653,-1.893 c 0.0898,-0.0856 0.1871,-0.1641 0.292,-0.2319 0.231,-0.1499 0.5252,-0.2659 0.86,-0.2659 0.7146,0 1.2954,0.1933 2.0857,0.5862 1.0253,0.5094 2.3808,1.3558 3.7653,2.4038 0.004,-0.008 0.007,-0.017 0.011,-0.0258 0.1083,-0.2407 0.254,-0.4547 0.4377,-0.6318 l 1.9655,-1.893 c 0.0837,-0.0805 0.1749,-0.1537 0.2747,-0.218 0.3212,-0.2081 0.6914,-0.305 1.0659,-0.305 0.629,0 1.6018,0.1726 2.9213,0.8028 0.7515,0.3588 1.8919,0.9935 3.242,1.959 l 1.7603,-1.6948 c 0.0386,-0.0375 0.0783,-0.0737 0.1182,-0.1095 0.7064,-0.6236 1.6456,-0.9575 2.5759,-0.9575 1.745,0 3.9027,0.5715 6.05,1.6098 0.5417,0.2619 1.0856,0.555 1.6256,0.8784 l 1.9659,-1.8932 c 0.055,-0.0527 0.1133,-0.1018 0.1757,-0.1468 0.2401,-0.1724 0.5369,-0.2807 0.8623,-0.2807 0.4156,0 0.771,0.2033 1.0108,0.3671 0.2696,0.1843 0.5537,0.434 0.8414,0.7084 l 0.007,0.007 0.007,0.007 c 0.1848,0.1865 0.4807,0.4893 0.8441,0.8615 0.5667,0.5802 1.2317,1.26 1.9129,1.9508 -0.008,-0.184 -0.005,-0.3586 0.009,-0.521 0.0278,-0.3215 0.1037,-0.6526 0.2781,-0.9238 0.0504,-0.0791 0.1131,-0.1588 0.1904,-0.2325 l 1.9653,-1.8927 c 0.0601,-0.0572 0.1287,-0.1111 0.2072,-0.1587 0.1868,-0.1123 0.4045,-0.1721 0.635,-0.1721 0.7472,0 1.3697,0.4641 2.1149,1.0834 0.6052,0.5134 1.9361,1.7133 3.2975,2.9546 0.1114,-0.3977 0.2804,-0.7532 0.5026,-1.0613 0.1041,-0.1449 0.2197,-0.2784 0.3453,-0.4 0.004,-0.003 0.007,-0.007 0.0108,-0.0102 l 1.9652,-1.8927 c 0.2214,-0.2126 0.474,-0.3878 0.7518,-0.5227 0.4405,-0.214 0.9283,-0.3186 1.4283,-0.3186 1.1756,0 2.6476,0.4997 4.2217,1.5041 1.5891,1.0133 3.3392,2.5761 5.0842,4.7984 0.2288,0.2997 0.398,0.5777 0.4972,0.8337 0.0933,0.2401 0.1596,0.5485 0.0377,0.8473 l -0.0179,0.0445 -0.0252,0.0417 c -0.0388,0.0632 -0.0884,0.1287 -0.1514,0.1899 l -1.9655,1.893 c -0.0629,0.0615 -0.1389,0.119 -0.2305,0.1664 -0.1907,0.0989 -0.403,0.1309 -0.6057,0.1094 -0.3657,-0.0391 -0.6543,-0.2432 -0.8569,-0.4298 l -0.017,-0.0158 -0.0159,-0.0168 c -1.8179,-1.9247 -3.2825,-3.251 -4.4756,-4.0918 -0.3683,-0.2593 -0.7022,-0.4663 -1.0044,-0.6287 0.4094,1.8661 1.116,3.4243 1.5438,4.0981 0.2302,0.3489 0.4476,0.5249 0.6344,0.6528 0.1939,0.1272 0.4187,0.2798 0.5907,0.4677 0.1956,0.2134 0.3099,0.4547 0.345,0.7415 l 0.004,0.0338 v 0.034 c 0,0.4799 -0.2359,0.9292 -0.5392,1.2523 -0.0241,0.0261 -0.0493,0.0516 -0.0751,0.0766 l -1.9653,1.8929 c -0.1394,0.135 -0.3018,0.2563 -0.4824,0.3507 -0.2126,0.1111 -0.4762,0.1973 -0.7693,0.1973 -0.5361,0 -1.1231,-0.3198 -1.6784,-0.7744 -0.2645,-0.2169 -1.4548,-1.2847 -2.8735,-2.5623 -0.005,0.2965 -0.0785,0.5729 -0.2112,0.815 -0.0813,0.1491 -0.1851,0.2846 -0.307,0.4025 l -1.9655,1.8927 c -0.0893,0.0862 -0.1877,0.1627 -0.2951,0.2282 -0.2546,0.1553 -0.5596,0.2497 -0.8833,0.2497 -0.5732,0 -1.2492,-0.4728 -1.6795,-0.7727 l -0.0216,-0.0148 -0.0198,-0.0164 c -0.1701,-0.138 -0.3492,-0.2769 -0.563,-0.4422 -0.4254,-0.3291 -0.9535,-0.7376 -1.7081,-1.3637 -0.3181,-0.264 -0.6372,-0.5383 -0.9564,-0.821 -0.0105,0.0638 -0.025,0.1279 -0.0437,0.1919 -0.1142,0.3898 -0.3713,0.7203 -0.6695,1.0069 l -1.9653,1.893 c -0.0487,0.0468 -0.0986,0.0927 -0.1491,0.1372 l -0.0306,0.0269 -0.0337,0.0233 c -0.2455,0.17 -0.6194,0.403 -1.0877,0.403 -0.5428,0 -0.9391,-0.3537 -1.15,-0.5723 -0.2548,-0.2644 -0.4901,-0.6018 -0.6908,-0.9283 -0.4068,-0.6616 -0.7447,-1.3975 -0.8887,-1.7167 l -0.005,-0.01 -0.004,-0.01 c -0.1281,-0.313 -0.1927,-0.6679 -0.0351,-0.989 0.0459,-0.0939 0.1082,-0.1783 0.1842,-0.2509 l 0.0553,-0.0482 c -0.1865,-0.4816 -0.3682,-0.9609 -0.542,-1.4301 -0.3586,-0.3058 -0.7098,-0.5933 -1.0536,-0.8634 0.2202,0.5179 0.3483,1.0698 0.3483,1.6132 0,0.6239 -0.2228,1.1667 -0.6409,1.5687 l -1.9655,1.8927 c -0.017,0.0164 -0.0346,0.0326 -0.0522,0.0484 -0.3603,0.324 -0.8209,0.5188 -1.3144,0.5936 l -0.5043,0.4856 c -0.0399,0.0388 -0.0833,0.0757 -0.1295,0.1105 -0.2962,0.2226 -0.6837,0.3382 -1.1183,0.3382 -1.0851,0 -2.2408,-0.8521 -3.0373,-1.5449 -0.8822,-0.7667 -1.6535,-1.6401 -2.0092,-2.0993 -0.521,-0.699 -0.9941,-1.4355 -1.3961,-2.1631 -1.3039,-1.105 -2.7184,-2.2105 -3.9421,-3.0495 0.4212,1.2095 0.9777,2.5248 1.6755,3.6878 0.0684,0.114 0.1279,0.2152 0.18,0.3045 0.1815,0.309 0.3175,0.5403 0.4601,0.8467 0.1298,0.2795 0.1307,0.5641 0.0638,0.8132 -0.0661,0.2447 -0.1987,0.4644 -0.3575,0.6458 -0.0348,0.0394 -0.0714,0.0782 -0.1102,0.1156 l -1.9656,1.893 c -0.1374,0.1335 -0.2982,0.2512 -0.4734,0.343 -0.2216,0.1162 -0.4983,0.2072 -0.803,0.2072 -0.3736,0 -0.6996,-0.1292 -1.0057,-0.3662 -0.2801,-0.2169 -0.5698,-0.5434 -0.9063,-0.9876 -0.0853,-0.1125 -0.1879,-0.2449 -0.3095,-0.4017 -0.6367,-0.8203 -1.6427,-2.1155 -2.8131,-3.3928 0.2727,0.4099 0.5009,0.8428 0.5009,1.1438 0,0.2812 -0.1086,0.5292 -0.2591,0.7294 -0.0553,0.0737 -0.1177,0.1423 -0.1843,0.2058 l -1.9652,1.8929 c -0.1112,0.1058 -0.2347,0.1973 -0.3615,0.2747 -0.3971,0.2429 -0.9096,0.3988 -1.4,0.3988 -0.3135,0 -0.6004,-0.0822 -0.8546,-0.225 -0.2447,-0.1375 -0.4493,-0.3249 -0.6254,-0.5307 l -0.0116,-0.0133 -0.0108,-0.0139 c -0.4028,-0.5252 -1.6829,-2.4911 -2.7048,-4.6318 0.005,0.0329 0.009,0.0646 0.0134,0.095 0.0853,0.8112 0.1292,0.8849 0.2318,0.9946 0.2739,0.2571 0.432,0.5976 0.4896,0.919 0.0626,0.349 0.0195,0.7546 -0.2634,1.1308 l -0.0357,0.047 -1.9652,1.893 -0.0443,0.0408 c -0.1213,0.1114 -0.3308,0.3104 -0.6222,0.4612 -0.3058,0.159 -0.6706,0.2523 -1.1219,0.2523 -2.554,0 -5.6259,-1.1973 -8.189,-2.9378 -1.4128,-0.9593 -2.6303,-2.1606 -3.5221,-3.3775 -0.106,-0.0856 -0.2114,-0.1692 -0.3163,-0.2517 0.2208,0.5179 0.3486,1.0698 0.3486,1.6132 0,0.6239 -0.2228,1.1667 -0.6409,1.5687 l -1.9655,1.8927 c -0.017,0.0164 -0.0346,0.0326 -0.0522,0.0484 -0.3603,0.324 -0.8209,0.5188 -1.3144,0.5936 l -0.5043,0.4856 c -0.0402,0.0388 -0.083,0.0757 -0.1298,0.1105 -0.296,0.2226 -0.6837,0.3382 -1.118,0.3382 -1.0854,0 -2.2408,-0.8521 -3.0373,-1.5449 -0.8822,-0.7667 -1.6535,-1.6401 -2.0095,-2.0993 -0.0187,-0.0252 -0.0374,-0.0507 -0.0564,-0.076 -0.0972,0.254 -0.2336,0.5125 -0.4076,0.7498 -0.093,0.1273 -0.2007,0.2531 -0.324,0.3722 l -1.9656,1.893 c -0.1397,0.1349 -0.2999,0.2605 -0.4819,0.3676 -0.3492,0.2055 -0.7707,0.3376 -1.2534,0.3376 -0.453,0 -1.0157,-0.0966 -1.605,-0.2588 0.2936,0.5624 0.5559,1.0772 0.79,1.537 0.6607,1.2962 1.1713,2.294 1.3382,2.7507 0.1763,0.4825 0.2583,0.9856 0.1299,1.4136 -0.0553,0.1832 -0.1542,0.3683 -0.3172,0.5242 l -1.9656,1.8927 c -0.0374,0.0357 -0.0785,0.07 -0.1227,0.1023 -0.243,0.176 -0.5349,0.2503 -0.8266,0.2503 -0.7472,0 -1.6458,-0.4904 -2.0319,-0.7569 -0.2477,-0.1706 -0.4626,-0.3662 -0.6134,-0.6032 -0.1553,-0.2449 -0.2225,-0.5023 -0.2225,-0.767 0,-0.5318 -0.1381,-1.1339 -0.4612,-1.7465 -0.5633,-0.9388 -1.3961,-2.6773 -2.2513,-4.46 -0.256,-0.5332 -0.5159,-1.0755 -0.7761,-1.6118 -1.2444,-2.59 -2.9852,-7.6734 -3.0986,-8.2808 -0.0331,-0.1775 -0.0674,-0.4065 -0.026,-0.6438 0.0439,-0.254 0.1663,-0.481 0.3713,-0.6834 0.0127,-0.0142 0.076,-0.1097 0.1148,-0.4085 0.0108,-0.2449 0.1154,-0.4666 0.2282,-0.6381 0.0859,-0.1306 0.1922,-0.2556 0.3115,-0.371 l 1.9656,-1.893 c 0.0544,-0.0524 0.1114,-0.1026 0.1703,-0.1508 0.364,-0.2951 0.9071,-0.5757 1.516,-0.5757 0.9116,0 2.6861,0.4932 4.0206,1.163 1.3995,0.7042 3.5876,2.3358 5.086,3.9731 z m -24.0375,0.8076 c 0.373,2.0358 1.131,4.4175 2.0763,6.5072 0.9964,2.2017 2.0764,4.1672 2.7632,5.4167 0.2597,0.472 0.4774,0.8677 0.6007,1.1172 0.1658,0.3449 0.2741,0.684 0.2483,1.0337 -0.0272,0.3646 -0.1933,0.66 -0.4076,0.9205 -0.0703,0.085 -0.1426,0.1635 -0.2166,0.2349 l -1.9655,1.8927 c -0.1412,0.1367 -0.2897,0.2472 -0.4462,0.3317 -0.2446,0.1318 -0.496,0.1922 -0.7376,0.1922 -0.2585,0 -0.5561,-0.0505 -0.8376,-0.2517 -0.2455,-0.1752 -0.4195,-0.4252 -0.5669,-0.6954 -0.2954,-0.5411 -1.0242,-2.0318 -1.9021,-3.8267 -0.623,-1.2734 -1.332,-2.723 -2.0525,-4.1582 -0.4811,0.1639 -0.9556,0.2171 -1.4335,0.2171 -1.7615,0 -4.1536,-0.8583 -6.467,-2.8913 -1.3082,-1.1781 -2.3729,-2.6407 -3.1062,-4.0348 -0.6327,-0.591 -1.3042,-1.1858 -1.9695,-1.7204 -0.714,-0.5743 -1.3572,-1.0264 -1.9043,-1.3461 0.009,0.0306 0.0176,0.0615 0.0269,0.0929 0.3963,1.321 1.1591,3.0535 1.8828,4.3606 0.2066,0.373 0.4739,0.703 0.7591,1.0516 0.1449,0.1772 0.3062,0.3736 0.4394,0.5635 l 0.0212,0.0298 0.0173,0.032 c 0.1528,0.2844 0.3005,0.6169 0.3124,0.9681 0.0128,0.3883 -0.14,0.741 -0.4552,1.0454 l -1.9656,1.8927 c -0.1474,0.1426 -0.3279,0.2985 -0.5479,0.4178 -0.2325,0.1262 -0.5043,0.2086 -0.8181,0.2086 -0.3728,0 -0.6619,-0.1522 -0.8561,-0.2911 -0.1927,-0.138 -0.3574,-0.3107 -0.4793,-0.4427 l -0.0317,-0.0343 -0.0261,-0.0383 c -0.1259,-0.1843 -0.292,-0.2917 -0.4357,-0.3422 -0.4626,-0.1672 -0.8575,-0.3787 -2.0228,-1.106 -0.1151,-0.072 -0.2497,-0.1613 -0.4005,-0.2654 -0.0162,0.0207 -0.0326,0.0409 -0.0488,0.0607 -0.0561,0.0672 -0.1179,0.1344 -0.1851,0.1996 l -1.9655,1.8927 c -0.1202,0.1156 -0.2586,0.2245 -0.4153,0.3155 -0.2475,0.1442 -0.557,0.2528 -0.9114,0.2528 -0.3713,0 -0.7823,-0.072 -1.2112,-0.3671 -0.392,-0.2701 -0.7586,-0.6999 -1.1495,-1.3266 -0.4838,-0.7758 -1.195,-2.3797 -1.9542,-4.5439 -1.2832,-1.0843 -2.6679,-2.1646 -3.8687,-2.988 0.4212,1.2095 0.9774,2.5248 1.6756,3.6878 0.068,0.114 0.1275,0.2152 0.18,0.3045 0.1811,0.309 0.3172,0.5403 0.4598,0.8467 0.1301,0.2795 0.1309,0.5641 0.0637,0.8132 -0.066,0.2447 -0.1987,0.4644 -0.3574,0.6458 -0.0349,0.0394 -0.0714,0.0782 -0.1103,0.1156 l -1.9652,1.893 c -0.1375,0.1335 -0.2982,0.2512 -0.4734,0.343 -0.2217,0.1162 -0.4986,0.2072 -0.8031,0.2072 -0.3736,0 -0.6996,-0.1292 -1.0057,-0.3662 -0.2801,-0.2169 -0.5701,-0.5434 -0.9063,-0.9876 -0.0853,-0.1125 -0.1882,-0.2449 -0.3098,-0.4017 -0.6366,-0.8203 -1.6427,-2.1155 -2.8131,-3.3928 0.2727,0.4099 0.5012,0.8428 0.5012,1.1438 0,0.2812 -0.1086,0.5292 -0.2591,0.7294 -0.0556,0.0737 -0.1176,0.1423 -0.1843,0.2058 l -1.9652,1.8929 c -0.1111,0.1058 -0.2347,0.1973 -0.3614,0.2747 -0.3974,0.2429 -0.91,0.3988 -1.4003,0.3988 -0.3133,0 -0.6001,-0.0822 -0.8544,-0.225 -0.2446,-0.1375 -0.4493,-0.3249 -0.6253,-0.5307 l -0.0119,-0.0133 -0.0108,-0.0139 c -0.4445,-0.5797 -1.9582,-2.9154 -3.0135,-5.3033 -1.1166,-2.5277 -1.3235,-3.6304 -1.3235,-4.2928 0,-0.6491 0.1976,-1.2382 0.5099,-1.6824 0.0854,-0.1213 0.1826,-0.2361 0.2909,-0.3398 l 1.9655,-1.893 c 0.0896,-0.0856 0.1871,-0.1641 0.2917,-0.2319 0.231,-0.1499 0.5255,-0.2659 0.8603,-0.2659 0.7143,0 1.2952,0.1933 2.0857,0.5862 1.0251,0.5094 2.3806,1.3558 3.765,2.4038 0.004,-0.008 0.007,-0.017 0.0114,-0.0258 0.108,-0.2407 0.2537,-0.4547 0.4376,-0.6318 l 1.9656,-1.893 c 0.0836,-0.0805 0.1749,-0.1537 0.2744,-0.218 0.3214,-0.2081 0.6916,-0.305 1.0661,-0.305 0.6287,0 1.6016,0.1726 2.9211,0.8028 0.6296,0.3004 1.5318,0.7945 2.6016,1.5145 l 1.3442,-1.2946 0.0227,-0.0204 c 0.263,-0.2381 0.6916,-0.5726 1.2923,-0.5726 0.538,0 0.9564,0.3178 1.1866,0.523 0.267,0.2384 0.4935,0.5224 0.6474,0.7325 l 0.006,0.008 0.006,0.009 c 0.5737,0.8394 1.5913,2.151 3.039,3.6083 -0.0204,-0.853 0.136,-1.5829 0.4532,-2.1739 0.1506,-0.281 0.3376,-0.5301 0.5579,-0.743 l 1.9655,-1.893 c 0.1715,-0.1658 0.3629,-0.3095 0.5735,-0.4294 0.4807,-0.2738 1.0315,-0.4057 1.605,-0.4057 1.2636,0 2.7141,0.451 4.3032,1.4826 0.1724,0.1119 0.347,0.231 0.5236,0.3577 l 0.9867,-0.9502 c 0.2189,-0.21 0.4726,-0.3512 0.7331,-0.4379 0.261,-0.0871 0.5196,-0.1171 0.7495,-0.1171 0.8041,0 2.6073,0.6843 4.2888,1.692 l 0.015,0.009 c 0.4297,0.2724 1.1466,0.8226 1.9497,1.5001 0.002,-0.003 0.003,-0.006 0.005,-0.009 0.1156,-0.2067 0.2605,-0.4034 0.4405,-0.5766 l 1.9653,-1.8927 c 0.108,-0.104 0.2284,-0.1996 0.3622,-0.2835 0.3637,-0.2282 0.7983,-0.3529 1.2838,-0.3529 1.7751,0 3.765,1.1571 5.3904,2.4406 1.671,1.3196 3.1623,2.9387 3.9467,4.1477 l 0.005,0.008 0.005,0.008 c 0.1479,0.2449 0.2891,0.5032 0.3733,0.7492 0.0791,0.2322 0.146,0.5624 -0.0108,0.887 -0.0436,0.0907 -0.1074,0.1896 -0.1995,0.28 -0.004,0.003 -0.007,0.007 -0.0105,0.01 l -1.9653,1.8929 c -0.053,0.0502 -0.1154,0.0976 -0.1882,0.1387 -0.2203,0.1247 -0.4675,0.1527 -0.6914,0.117 -0.3855,-0.062 -0.6871,-0.3072 -0.8949,-0.5173 l -0.0147,-0.015 -0.0139,-0.0159 c -0.4564,-0.5261 -1.7201,-1.8737 -3.1059,-3.0841 -0.5321,-0.4646 -1.0344,-0.8654 -1.4896,-1.1908"
         style="fill:#231f20;fill-opacity:1;fill-rule:evenodd;stroke:none"
         id="path840" />
      <path
         d="m 177.4157,367.3559 c -0.6571,0 -1.9718,-0.3997 -3.0399,-0.8663 -1.5044,-0.6718 -3.4903,-1.8864 -5.0446,-3.4874 l -0.007,-0.007 -0.0443,-0.0468 -0.115,-0.1216 c -2.4971,-2.6164 -6.8432,-5.946 -9.0593,-5.946 -0.671,0 -1.0434,0.4054 -0.6293,1.6532 0.7971,2.1254 2.3485,5.1953 3.8157,7.1524 0.4425,0.6069 0.2424,1.1471 -0.0416,1.3493 -0.1259,0.1352 -0.2937,0.2361 -0.5032,0.2361 -0.8807,0 -3.0189,-2.1592 -3.6436,-3.2386 -0.2058,-0.4048 -0.2058,-0.6746 -0.1236,-0.9445 0.0822,-0.2361 0.0822,-0.4051 -0.0822,-0.8096 -0.4113,-1.0122 -1.3156,-3.3738 -1.5622,-4.0484 -0.288,-0.7424 -0.2466,-1.4162 0.1647,-2.0163 0.534,-0.8634 1.1097,-1.1662 1.6033,-1.1662 h 0.0408 c 0.4581,0 1.0871,0.1344 2.2189,0.5723 1.3607,0.4913 3.356,1.7533 5.1404,3.2131 -0.2169,-0.5811 -0.3331,-1.1372 -0.3331,-1.658 0,-0.9802 0.5735,-1.9601 1.4735,-1.9601 0.9819,0 2.624,1.1154 3.2402,1.5208 1.3964,0.9459 3.3274,2.7371 3.7792,3.1765 0.4107,0.3719 0.6985,0.6086 0.6162,0.1014 -0.0822,-0.5408 -0.1641,-1.656 -0.9039,-4.2916 -0.739,-2.7663 -1.5197,-5.0596 -3.204,-7.1167 -1.7663,-2.1583 -3.9782,-3.3726 -5.6999,-3.3726 -1.192,0 -1.8499,0.405 -2.2612,0.7086 -0.3697,0.303 -0.8632,0.6407 -1.2742,0.6407 -0.7812,0 -1.9324,-0.7759 -1.9324,-1.3493 0,-0.5517 1.2334,-1.0704 2.0554,-1.0704 0.6579,0 0.9459,-0.0652 1.3567,-0.1624 0.4527,-0.0652 1.0689,-0.097 1.6033,-0.097 1.315,0 3.975,0.8107 5.4952,1.9707 2.9577,2.3604 4.765,5.5647 5.874,9.5102 0.2469,0.9802 1.5199,5.8802 1.8847,7.4347 0.0805,0.2702 0.0805,0.5743 0,0.7433 -0.0808,0.1349 -0.0808,0.2026 0.1616,0.3716 0.8064,0.4053 1.2906,1.0474 1.2906,1.622 0,0.5663 -0.5647,1.7994 -2.3099,1.7994 z m -22.2591,-0.1675 c -1.1925,0 -2.7961,-0.5097 -3.9061,-1.2427 -1.2564,-0.8629 -2.4665,-2.2479 -2.4665,-3.4637 0,-0.4388 0.1616,-0.9459 0.4034,-1.3513 0.2418,-0.4799 0.8872,-1.2917 1.4117,-1.9686 0.4674,-0.5409 0.8535,-1.1838 0.8535,-1.6237 0,-0.3719 -0.6115,-0.6764 -1.0551,-0.7441 -0.5244,-0.1001 -0.8875,0 -1.2506,0.1358 -0.2418,0.1335 -0.4451,0.1335 -0.8153,0.0317 -0.3699,-0.1335 -0.7398,-0.3685 -1.2333,-0.7701 -0.288,-0.2019 -0.3702,-0.436 -0.4111,-0.6373 0.082,-0.5363 1.069,-0.8379 1.6444,-0.8379 0.3702,0 0.8961,0.1006 1.3796,0.2682 0.8476,0.2678 2.1822,0.8379 2.7825,1.2401 0.5208,0.3354 1.0015,1.042 1.0015,1.6509 0,0.8119 -0.6806,1.9284 -1.4819,2.8758 -0.7215,0.7511 -1.0917,1.3589 -1.0917,2.0341 0,1.3513 2.7956,2.905 5.0981,2.905 0.6988,0 1.2745,0.1913 1.2745,0.5737 0,0.2548 -0.2466,0.5097 -0.6579,0.7013 -0.3699,0.159 -0.8223,0.2228 -1.4797,0.2228 z m -9.0043,0 c -1.1919,0 -2.7955,-0.5097 -3.9055,-1.2427 -1.2566,-0.8629 -2.4665,-2.2479 -2.4665,-3.4637 0,-0.1681 0.0256,-0.345 0.0678,-0.523 -1.8187,-2.0194 -4.9757,-5.0808 -6.6835,-5.0808 -0.9865,0 -1.2331,1.1435 -1.2331,2.6238 0,1.9088 0.7809,3.8556 2.0146,6.0664 0.1193,0.3228 0.1604,0.6457 -0.4561,0.9365 -0.2466,0.1307 -0.4935,0.1307 -0.7812,-0.0323 -0.1647,-0.0969 -0.3291,-0.0646 -0.37,0.0647 -0.1607,0.3313 -0.5709,0.735 -1.0204,0.735 -0.4493,0 -1.5971,-0.1684 -3.3109,-1.4128 -1.4213,-0.9802 -2.8009,-2.3644 -3.8707,-3.7049 -1.7226,-1.6877 -6.9228,-5.1891 -8.352,-5.1891 -0.4935,0 -1.0296,0.3679 -0.2877,2.6121 0.822,2.5113 3.0832,7.8021 6.7425,13.3611 0.5757,0.8374 0.822,1.4732 0.0822,2.1765 -0.1236,0.1341 -0.3702,0.2015 -0.5758,0.2015 -0.2057,0 -0.4524,-0.1009 -0.6579,-0.3019 -0.4932,-0.5023 -1.9729,-2.7124 -4.9334,-8.6731 -2.5965,-5.1234 -3.257,-8.3384 -3.257,-9.0417 v -0.0332 c 0,-1.201 0.5777,-2.1345 1.4451,-2.1345 2.0188,0 5.3498,2.0359 7.7701,3.9453 -0.6143,-1.167 -0.7515,-1.8737 -0.7515,-2.2997 0,-1.2402 1.3566,-1.6424 1.7271,-1.6424 0.6163,0 1.4072,0.3019 2.4106,1.0054 1.1288,0.771 3.4696,2.8568 4.0553,3.4957 0.2503,0.2018 0.3339,0.1684 0.3339,-0.0332 0,-0.3705 0.0408,-1.3459 0.1227,-2.0523 0.1636,-1.3767 1.3485,-2.4156 2.3315,-2.4156 2.1252,0 6.444,3.3511 7.9489,5.8033 0.2923,-0.4864 0.8442,-1.1834 1.3037,-1.7767 0.4674,-0.5409 0.8538,-1.1838 0.8538,-1.6237 0,-0.3719 -0.6115,-0.6764 -1.0551,-0.7441 -0.5247,-0.1001 -0.8875,0 -1.2506,0.1358 -0.2421,0.1335 -0.4451,0.1335 -0.8155,0.0317 -0.3697,-0.1335 -0.7399,-0.3685 -1.2334,-0.7701 -0.2874,-0.2019 -0.3696,-0.436 -0.4107,-0.6373 0.0822,-0.5363 1.0686,-0.8379 1.6441,-0.8379 0.3704,0 0.8963,0.1006 1.3801,0.2682 0.847,0.2678 2.1816,0.8379 2.7822,1.2401 0.5208,0.3354 1.0015,1.042 1.0015,1.6509 0,0.8119 -0.6811,1.9284 -1.4819,2.8758 -0.7217,0.7511 -1.0914,1.3589 -1.0914,2.0341 0,1.3513 2.7953,2.905 5.0976,2.905 0.6993,0 1.275,0.1913 1.275,0.5737 0,0.2548 -0.2469,0.5097 -0.6582,0.7013 -0.3702,0.159 -0.8223,0.2228 -1.4803,0.2228 z m -33.8496,0.1596 c -0.8609,0 -1.7631,-0.504 -2.8704,-1.4117 -1.599,-1.277 -3.444,-3.3267 -4.551,-4.6712 -0.3693,-0.4034 -0.5332,-0.4034 -0.4513,0.0675 0.1642,0.9867 0.8204,3.0163 1.3533,3.7264 0.205,0.2707 0.4099,0.5414 0.4099,0.8796 0.0411,0.4059 -0.328,1.0823 -0.902,1.0823 -0.4099,0 -1.0661,-0.5749 -1.3941,-0.8796 -0.369,-0.3045 -0.4921,-0.6764 -0.697,-1.6572 -0.1276,-0.6446 -0.3597,-1.7141 -0.6401,-2.8681 -4.483,-3.7811 -7.9568,-4.8183 -9.8249,-4.8183 -1.1128,0 -1.8141,0.5068 -1.8141,1.5885 0,0.6084 0.2888,1.4874 0.4946,1.853 0.1239,0.2282 0.2067,0.2282 0.3716,0.1302 0.2469,-0.1628 0.5766,-0.2929 0.9479,-0.2929 2.1031,0 3.6287,0.8791 4.7396,1.872 0.7812,0.7149 1.3566,1.8383 1.3566,2.8936 0,1.0143 -0.7398,1.5806 -1.6854,1.6141 -0.3291,0.0669 -0.4525,0.2001 -0.4525,0.2999 -0.0411,0.2999 -0.3296,0.5998 -0.907,0.5998 -1.1141,0 -2.6924,-1.4156 -3.6899,-2.482 -0.7299,-0.1539 -1.6784,-0.2832 -2.6561,-0.2832 -1.1922,0 -2.0554,0.1718 -2.5489,0.447 -0.2466,0.1375 -0.3288,0.3093 -0.3288,0.5157 -0.0825,0.5159 -0.4113,1.7189 -1.3567,1.7189 -0.6987,0 -1.6854,-0.9284 -1.6854,-1.5815 0,-0.5499 0.2877,-1.1001 0.6576,-1.4278 0.2055,-0.1641 0.2055,-0.2956 0.0822,-0.5907 -1.0689,-2.3088 -3.9053,-4.8606 -5.8379,-6.0358 -0.6169,-0.3359 -1.1926,-0.5035 -1.5625,-0.5035 -0.4932,0 -0.9437,0.4363 -0.4932,2.0481 0.6128,2.0559 1.1888,3.1598 2.0106,4.3271 0.411,0.6233 0.6579,1.0167 0.699,1.5959 0,0.8217 -0.288,1.9168 -0.9045,1.9168 -1.1512,0 -2.5487,-1.9509 -2.6725,-2.988 -0.0822,-0.3275 0.0416,-0.459 0.1647,-0.5247 0.1236,-0.0655 0.288,-0.1973 0.0411,-0.7325 -0.1406,-0.2977 -0.2685,-0.5791 -0.3867,-0.847 -2.5676,-2.1997 -6.116,-4.8827 -7.5277,-4.8827 -0.5346,0 -0.8586,0.4366 -0.4524,1.9811 0.4113,1.6121 1.1926,3.9966 2.3851,5.9783 0.2874,0.5035 0.4518,0.7387 0.5751,1.1081 0.288,0.5371 -0.411,1.2424 -0.9867,1.2424 -0.3288,0 -0.6579,-0.2015 -1.3156,-1.0749 -0.7401,-0.9402 -2.5163,-3.3245 -4.5326,-5.2384 -2.5248,-2.3176 -3.8488,-3.426 -4.8838,-3.426 -0.6208,0 -0.951,0.6381 -0.2483,2.1833 0.745,1.7801 1.2002,2.6867 1.5313,3.2238 0.2486,0.4229 0.7036,0.6253 0.9935,0.9627 0.2897,0.3036 1.2413,1.4842 1.2413,1.889 0,0.5394 -0.8277,0.9779 -1.4899,0.9779 -0.331,0 -0.6205,-0.1684 -0.9102,-0.506 -0.4138,-0.5394 -1.9031,-2.8332 -2.8939,-5.1944 -0.1482,-0.3209 -0.2803,-0.6169 -0.3977,-0.8907 -0.0963,-0.0309 -0.2006,-0.1083 -0.2916,-0.2395 -0.8632,-1.0471 -2.6725,-3.3089 -5.9613,-3.3089 -1.639,0 -4.0269,1.11 -5.1386,1.8499 -0.2883,0.1681 -0.2883,0.3362 0.1235,0.7067 1.2762,1.2441 4.4468,3.935 5.0233,4.4056 0.7005,0.5383 1.4006,1.0091 2.0186,1.0091 0.2469,0 0.5765,-0.0337 0.7412,-0.0337 0.2883,0 0.453,0.1669 0.618,0.3665 0.1236,0.303 0.4113,0.7361 -0.0411,1.1353 -0.453,0.3659 -1.1123,0.566 -1.5239,0.566 -0.4122,0 -0.6594,-0.1666 -0.9065,-0.2664 -0.1647,-0.1355 -0.4941,-0.2699 -1.0707,-0.2699 -0.5771,0 -1.4851,0.0672 -2.6456,0.1676 -1.6988,0.2355 -2.6107,0.335 -3.5226,0.335 -1.0349,0 -1.569,-0.466 -2.4327,-1.2316 -0.411,-0.3671 -0.4935,-0.9411 -0.1644,-1.4477 0.288,-0.5063 1.1512,-1.3839 1.5211,-1.5188 0.413,-0.1689 0.703,-0.1018 0.4961,0.3039 -0.4139,0.8776 -0.3725,1.5188 -0.0831,1.9576 0.1658,0.2367 0.3728,0.4388 0.9533,0.4388 0.4975,0 1.6991,-0.1009 4.3515,-0.2699 0.4555,-0.034 0.5377,-0.1689 0.1244,-0.5062 -1.6486,-1.4137 -3.4985,-2.9639 -5.1843,-4.5114 -0.2052,-0.1658 -0.3699,-0.2653 -0.6168,-0.1326 -0.2872,0.199 -0.5341,0.2982 -0.7809,0.2982 -0.5347,-0.0329 -1.192,-0.5967 -1.192,-1.3601 0,-0.3645 -0.0417,-0.4975 -0.2466,-0.6633 -0.3705,-0.398 -1.6858,-1.654 -1.6858,-2.2402 0,-0.2279 0.2052,-0.3909 0.3288,-0.4884 0.1641,-0.0978 0.5344,-0.131 0.9043,0.0649 0.4935,0.3586 1.809,1.3717 2.2612,1.8085 0.3291,0.3245 0.5343,0.358 0.9456,0.182 2.59,-1.3065 4.4402,-2.1532 6.3726,-2.1532 2.7462,0 4.7911,1.6633 5.9987,3.1413 -0.1761,-0.6094 -0.2163,-0.9881 -0.2163,-1.2523 0,-1.0795 0.6602,-1.889 1.2379,-1.889 0.5366,0 0.9904,0.1349 1.735,0.5062 1.9035,0.9443 5.0488,3.1369 7.2655,5.5993 0.3229,0.3371 0.4842,0.2361 0.3631,-0.1346 -0.2018,-0.5471 -0.6454,-1.7221 -0.8467,-2.8307 -0.5743,-2.2836 0.161,-3.2239 1.0888,-3.2239 0.4842,0 1.3402,0.1344 2.5739,0.7385 1.1231,0.5247 3.1992,1.7249 5.5423,3.8075 -0.3064,-0.9465 -0.4227,-1.5965 -0.4896,-2.0875 -0.2052,-1.7728 0.8998,-2.3748 1.4721,-2.3748 0.5726,0 1.2291,0.0669 2.3799,0.5354 2.4256,1.0701 6.2904,3.9802 8.2636,7.4588 0.1236,0.2325 0.2058,0.3311 0.4527,0.298 0.3288,-0.0655 0.8631,-0.1639 1.9321,-0.1639 0.9091,0 1.8184,0.1165 2.6495,0.3317 -1.4689,-2.0617 -2.431,-4.3044 -2.431,-5.5262 v -0.034 c 0,-1.9176 1.5534,-2.9835 3.032,-2.9835 2.8117,0 7.0404,1.6518 10.398,4.703 -0.3339,-1.2229 -0.6888,-2.3468 -0.9941,-2.9619 -0.2458,-0.5074 -0.2869,-0.8796 0,-1.1838 0.2463,-0.3041 0.6154,-0.4736 0.9434,-0.4736 0.3691,0 0.6562,0.1695 0.9428,0.6426 1.5174,2.7516 3.2805,5.4402 5.5358,7.5909 0.9433,0.9076 1.7637,1.6469 2.3371,1.6469 0.3691,0 0.6974,-0.1681 0.9437,-0.3024 0.2457,-0.1681 0.6145,-0.1347 0.9425,0.1678 0.3283,0.2687 0.6973,0.8064 0.7792,1.2435 0.1239,0.5715 -0.3279,1.1427 -1.2302,1.1427 z m 56.5279,-9.1384 c 0,1.2532 1.1912,3.3186 2.259,4.4694 1.3558,1.4222 3.6972,2.844 5.4224,2.844 0.7806,0 1.4791,-0.3044 1.4791,-0.8461 0,-0.237 -0.2055,-0.4743 -0.3697,-0.6095 -0.1646,-0.1695 -0.3699,-0.2032 -0.5346,-0.2372 -0.2871,-0.0338 -0.5748,-0.1693 -0.9442,-0.508 -0.2469,-0.2707 -1.2739,-1.6585 -2.5058,-2.776 -0.6985,-0.6097 -3.3273,-3.0812 -4.3954,-3.0812 -0.2469,0 -0.4108,0.3047 -0.4108,0.7106 z m -38.7119,7.2375 c 0.5344,0 0.781,-0.3362 0.9043,-0.7396 0.0822,-0.4034 -0.0411,-0.9074 -0.2463,-1.2433 -0.1236,-0.235 -0.9868,-1.6798 -1.5217,-2.251 -1.233,-1.3439 -2.3842,-2.5203 -3.0835,-3.058 -0.7396,-0.5712 -1.3567,-0.9408 -1.6858,-0.9408 -0.534,0 -0.6984,0.504 -0.4521,1.1426 0.4116,1.2096 1.5627,3.4949 3.4948,5.3759 1.1101,1.0752 1.9732,1.7142 2.5903,1.7142 z m -37.3836,-3.873 c -0.536,0 -0.6182,0.1023 -0.4949,0.3404 0.6599,1.2935 2.3094,3.6085 3.3401,3.6085 0.536,0 1.1131,-0.4425 1.1131,-1.2597 0,-1.3615 -1.8969,-2.6892 -3.9171,-2.6892 z m 71.7608,12.1504 c -0.6409,0 -1.0814,-0.2004 -1.1619,-1.2702 0,-0.5014 0.04,-0.9694 0.1604,-1.3037 0.1202,-0.468 0.4405,-0.8688 1.0415,-1.1364 0.5207,-0.2338 0.8821,-0.1669 0.841,0.2676 -0.04,0.6684 0,1.6711 0.2877,2.4738 0.1644,0.6013 -0.3676,0.9689 -1.1687,0.9689 z m -30.3582,-2.3281 c -1.0721,0 -1.7728,-0.7906 -1.7728,-1.4165 0,-0.6256 0.7421,-1.021 1.1957,-1.021 0.9071,0 2.0613,0.5598 2.0613,1.2844 0,0.5269 -0.7832,1.1531 -1.4842,1.1531 z m -4.9346,0.0655 c -0.9416,0 -1.6783,-0.3952 -1.6783,-1.2186 0,-0.6256 0.7367,-1.2844 1.3915,-1.2844 0.6962,0 1.6787,0.7577 1.6787,1.3507 0,0.3952 -0.1636,1.1523 -1.3919,1.1523 z m 104.2183,-4.6086 c -1.5216,0 -3.742,-0.7563 -5.9629,-2.7076 -1.2869,-1.1588 -2.3168,-2.5994 -3.0113,-3.945 -2.0392,-1.9145 -4.5167,-3.9059 -5.9519,-3.9059 -1.0689,0 -1.8833,0.8689 -1.1511,3.3424 0.411,1.3697 1.1925,3.1413 1.9324,4.4776 0.3702,0.6684 0.9045,1.203 1.2333,1.671 0.2877,0.5346 0.3699,0.9354 -0.0414,1.3031 -0.246,0.2673 -0.4929,0.4345 -0.8217,0.4345 -0.288,0 -0.5349,-0.2338 -0.7815,-0.5011 -0.2056,-0.3011 -0.4933,-0.5015 -0.781,-0.6018 -0.3699,-0.1338 -0.6987,-0.3008 -1.8765,-1.0355 -1.1738,-0.7353 -4.5451,-3.3755 -5.9015,-4.913 -0.2877,-0.3002 -0.4935,-0.2004 -0.4113,0.134 0.3705,1.3034 1.2745,3.6426 1.8502,4.5114 0.3702,0.5349 0.6579,0.8354 1.0689,0.902 0.2053,0.0334 0.37,0.1003 0.37,0.3342 0,0.468 -0.5752,1.3714 -1.2745,1.3714 h -0.0411 c -0.4932,0 -0.9867,-0.1678 -1.7269,-1.3714 -0.4691,-0.7416 -1.1871,-2.3553 -1.9539,-4.5715 -2.5514,-2.1707 -5.9734,-4.7361 -7.3545,-4.7361 -0.5343,0 -0.8583,0.4366 -0.4521,1.9811 0.4113,1.6121 1.1923,3.9966 2.3845,5.9783 0.288,0.5035 0.4524,0.7387 0.5757,1.1081 0.288,0.5371 -0.4113,1.2424 -0.9867,1.2424 -0.3288,0 -0.6577,-0.2015 -1.3156,-1.0749 -0.7401,-0.9402 -2.5163,-3.3245 -4.5329,-5.2384 -2.5245,-2.3176 -3.8488,-3.426 -4.8838,-3.426 -0.6202,0 -0.9507,0.6381 -0.248,2.1833 0.7449,1.7801 1.2002,2.6867 1.5313,3.2238 0.2483,0.4229 0.7035,0.6253 0.993,0.9627 0.2899,0.3036 1.2418,1.4842 1.2418,1.889 0,0.5394 -0.8277,0.9779 -1.4896,0.9779 -0.3311,0 -0.6211,-0.1684 -0.9108,-0.506 -0.4138,-0.5394 -1.9034,-2.8332 -2.8936,-5.1944 -1.1554,-2.496 -1.3206,-3.5079 -1.3206,-4.0479 0,-1.0795 0.6604,-1.889 1.2379,-1.889 0.5363,0 0.9907,0.1349 1.7348,0.5062 1.9037,0.9443 5.0487,3.1369 7.2663,5.5993 0.3226,0.3371 0.4841,0.2361 0.3631,-0.1346 -0.2018,-0.5471 -0.6454,-1.7221 -0.8473,-2.8307 -0.5746,-2.2836 0.1613,-3.2239 1.0891,-3.2239 0.4844,0 1.3402,0.1344 2.5739,0.7385 1.1279,0.5269 3.2142,1.7351 5.5689,3.833 -0.2225,-0.7277 -0.4433,-1.499 -0.6599,-2.306 -0.1644,-0.5349 -0.2874,-1.23 -0.0822,-1.4536 0.2469,-0.2228 0.4935,-0.3821 0.7815,-0.3821 0.4521,0 0.9456,0.5737 1.2331,0.9666 1.0278,1.5041 3.4126,4.4447 7.0996,7.0846 0.485,0.368 0.7677,0.5015 0.8893,0.4014 0.1207,-0.1003 0.0802,-0.2676 -0.1619,-0.8356 -0.3231,-0.7682 -0.8487,-2.0719 -1.2124,-3.5419 -0.8586,-3.2089 0.404,-4.8402 2.1912,-4.8402 1.5361,0 3.5589,0.7914 5.9488,3.0084 -0.0652,-0.3044 -0.0978,-0.5814 -0.0978,-0.8206 0,-1.5157 0.8031,-1.8525 1.4457,-1.8525 0.5618,0 2.2008,0.5729 3.8868,1.5829 0.9051,0.5726 3.2899,2.5603 4.8538,4.2443 0.2061,0.2356 0.3716,0.3036 0.2475,0 -0.2061,-0.9331 -0.3303,-1.6483 -0.4542,-2.9761 -0.1233,-1.3901 0.4128,-2.7643 1.776,-2.7643 2.961,0 7.2371,3.99 8.7168,6.2711 0.288,0.4768 0.4524,0.8512 0.3288,1.0893 -0.123,0.2724 -0.4113,0.2384 -0.781,-0.1363 -0.9456,-1.0894 -5.1389,-5.4814 -7.1126,-5.4814 -0.6577,0 -1.0696,0.6815 -0.9043,2.1456 0.2055,2.349 1.11,5.4467 2.3023,8.0784 1.3978,3.0938 2.9599,5.7212 3.3712,6.5529 0.288,0.5987 0.2464,0.9309 -0.0824,1.3306 -0.3289,0.3991 -0.6163,0.4989 -0.8221,0.4989 -0.2877,0 -0.4932,-0.0998 -0.7398,-0.599 -0.5349,-0.898 -2.3026,-4.6568 -4.112,-8.2474 -0.1238,-0.2305 -0.2066,-0.2305 -0.5366,-0.1315 -0.4544,0.197 -0.9088,0.263 -1.4043,0.263 z m -0.7404,-1.4139 c 0.7816,0 1.1946,-0.2727 1.3598,-0.4428 0.2067,-0.1703 0.2478,-0.4084 0.0828,-0.7829 -0.3713,-1.1574 -2.5934,-3.6768 -4.4031,-5.2089 -1.5216,-1.2935 -2.7552,-1.872 -3.3723,-1.872 -0.3702,0 -0.6577,0.2375 -0.6577,0.7146 0,0.6128 0.4521,1.9749 2.1793,4.0853 1.5625,1.9406 3.4957,3.5067 4.8112,3.5067 z m 101.2482,1.8329 c -0.2475,0 -0.6596,-0.2347 -1.2365,-0.6372 -0.536,-0.4357 -1.1542,-0.8711 -2.2569,-1.8097 -2.0809,-1.7093 -4.2024,-3.888 -6.2019,-5.8994 -0.4896,-0.5026 -0.813,-0.2345 -0.4896,0.6372 0.449,1.1795 1.4995,4.5363 2.348,5.8788 0.4461,0.7049 0.2018,1.2424 -0.4445,1.8133 -0.2424,0.1675 -0.4442,0.2681 -0.6466,0.2681 -0.7673,0 -1.7776,-2.1821 -2.0656,-2.8199 -0.2052,-0.5034 0,-0.6715 0.2061,-0.6715 0.163,0 0.163,-0.1675 0.0819,-0.4028 -0.2333,-0.599 -0.4615,-1.1965 -0.6749,-1.7739 -4.6188,-3.977 -8.1973,-5.0576 -10.1044,-5.0576 -1.1132,0 -1.8139,0.5068 -1.8139,1.5885 0,0.6084 0.2883,1.4874 0.4946,1.853 0.1236,0.2282 0.2061,0.2282 0.3711,0.1302 0.2475,-0.1628 0.5771,-0.2929 0.9482,-0.2929 2.1027,0 3.6283,0.8791 4.7398,1.872 0.7809,0.7149 1.3567,1.8383 1.3567,2.8936 0,1.0143 -0.7402,1.5806 -1.6858,1.6141 -0.3288,0.0669 -0.4524,0.2001 -0.4524,0.2999 -0.0408,0.2999 -0.33,0.5998 -0.9068,0.5998 -1.4845,0 -3.7933,-2.5138 -4.4535,-3.3647 -0.5346,-0.718 -1.0112,-1.4652 -1.4063,-2.1906 -2.5537,-2.1745 -5.9919,-4.7546 -7.3763,-4.7546 -0.5346,0 -0.8586,0.4366 -0.4524,1.9811 0.4113,1.6121 1.1925,3.9966 2.385,5.9783 0.2875,0.5035 0.4519,0.7387 0.5755,1.1081 0.2877,0.5371 -0.4113,1.2424 -0.9868,1.2424 -0.3291,0 -0.6579,-0.2015 -1.3158,-1.0749 -0.7401,-0.9402 -2.5163,-3.3245 -4.5329,-5.2384 -2.5242,-2.3176 -3.8486,-3.426 -4.8832,-3.426 -0.6211,0 -0.9513,0.6381 -0.2486,2.1833 0.7452,1.7801 1.2002,2.6867 1.5312,3.2238 0.2486,0.4229 0.7036,0.6253 0.9936,0.9627 0.2897,0.3036 1.2416,1.4842 1.2416,1.889 0,0.5394 -0.8278,0.9779 -1.4902,0.9779 -0.3311,0 -0.6205,-0.1684 -0.9102,-0.506 -0.4139,-0.5394 -1.9032,-2.8332 -2.8936,-5.1944 -1.1557,-2.496 -1.3207,-3.5079 -1.3207,-4.0479 0,-1.0795 0.6602,-1.889 1.2382,-1.889 0.5363,0 0.9901,0.1349 1.7342,0.5062 1.9041,0.9443 5.0494,3.1369 7.2661,5.5993 0.3228,0.3371 0.4844,0.2361 0.3634,-0.1346 -0.2018,-0.5471 -0.6458,-1.7221 -0.847,-2.8307 -0.5743,-2.2836 0.1613,-3.2239 1.0888,-3.2239 0.4841,0 1.3405,0.1344 2.5738,0.7385 1.0741,0.5014 3.0169,1.6203 5.2322,3.537 -0.1437,-0.4821 -0.2202,-0.9119 -0.2202,-1.258 v -0.034 c 0,-1.9176 1.5531,-2.9835 3.0319,-2.9835 2.8219,0 7.0685,1.6637 10.4315,4.7353 -0.3509,-1.0403 -0.599,-1.8774 -0.6772,-2.3176 -0.2055,-1.5111 0.3623,-2.2498 0.9252,-2.2498 0.322,0 0.7643,0.3353 1.3278,0.8727 1.0987,1.1084 6.1985,6.414 7.1371,6.9514 0.3268,0.2688 0.6122,0.4028 0.735,0.336 0.2041,-0.1004 0.2041,-0.3025 0,-0.8059 -0.2775,-0.8037 -1.2929,-3.4376 -1.5367,-4.2818 -0.5712,-1.688 -0.4481,-3.0724 0.2438,-3.0724 0.4062,0 0.8121,0.2361 1.6248,0.9116 1.1945,1.0128 5.3167,4.7948 6.7632,6.1458 0.4445,0.405 0.5658,0.3373 0.485,-0.034 -0.2826,-0.8445 -0.6463,-1.9922 -0.849,-3.377 -0.4158,-2.529 0.849,-3.8143 2.3925,-3.8143 1.9323,0 5.3036,1.6827 8.7162,6.0276 0.411,0.5392 0.5341,0.9094 0.4519,1.1118 -0.1231,0.2018 -0.3697,0.2018 -0.6988,-0.1012 -3.6592,-3.8733 -6.0021,-5.4567 -7.6467,-5.4567 -1.2748,0 -1.4769,0.9434 -1.1101,2.8636 0.4113,2.0545 1.1923,3.8055 1.6855,4.5805 0.2877,0.4379 0.5754,0.6738 0.8223,0.8421 0.4111,0.269 0.6166,0.4377 0.6574,0.7745 0,0.6066 -0.6163,1.2464 -1.1509,1.2464 -0.2463,0 -0.6579,-0.1687 -1.1919,-0.6067 -0.5349,-0.4373 -5.1755,-4.6479 -7.9243,-7.1064 -0.3747,-0.3371 -0.6661,-0.5054 -0.8328,-0.4048 -0.163,0.1349 -0.1227,0.3373 -0.0414,0.7075 0.2512,0.5893 2.147,4.9133 2.5597,5.7844 0.5417,1.1061 -0.1239,1.8774 -0.7835,1.8774 z m -21.4849,-5.6982 c -0.536,0 -0.6183,0.1023 -0.4947,0.3404 0.6597,1.2935 2.3091,3.6085 3.3398,3.6085 0.536,0 1.1132,-0.4425 1.1132,-1.2597 0,-1.3615 -1.8967,-2.6892 -3.9169,-2.6892 z m -24.8927,5.6982 c -2.3369,0 -5.258,-1.1129 -7.7483,-2.8131 -1.3702,-0.9252 -2.5509,-2.0934 -3.4027,-3.2718 -4.2321,-3.4307 -7.5087,-4.3897 -9.3041,-4.3897 -1.1135,0 -1.8142,0.5068 -1.8142,1.5885 0,0.6084 0.2886,1.4874 0.4949,1.853 0.1236,0.2282 0.2058,0.2282 0.3708,0.1302 0.2475,-0.1628 0.5774,-0.2929 0.9485,-0.2929 2.103,0 3.6286,0.8791 4.7392,1.872 0.7815,0.7149 1.3567,1.8383 1.3567,2.8936 0,1.0143 -0.7396,1.5806 -1.6855,1.6141 -0.3285,0.0669 -0.4521,0.2001 -0.4521,0.2999 -0.0408,0.2999 -0.3297,0.5998 -0.9071,0.5998 -1.4842,0 -3.7933,-2.5138 -4.453,-3.3647 -1.5978,-2.1447 -2.6606,-4.5567 -2.6606,-5.8414 v -0.034 c 0,-1.9176 1.5531,-2.9835 3.0314,-2.9835 2.4508,0 5.9749,1.2549 9.0627,3.5964 -0.0797,-0.2756 -0.1304,-0.5412 -0.1511,-0.7918 -0.1639,-1.6557 0.6412,-2.8046 1.402,-2.8046 0.521,0 1.2555,0.2027 2.1977,0.6755 1.4309,0.8116 2.9004,1.8253 5.3552,4.1571 0.6843,0.5745 0.8552,0.7097 1.0261,0.7097 0.171,0 0.2138,-0.1689 0.0428,-0.7097 -0.2137,-0.5066 -0.513,-1.4199 -1.4011,-3.6499 -1.1429,-2.8891 -3.9186,-9.2152 -4.2455,-10.5205 -0.3679,-1.372 0,-1.9747 0.449,-1.9747 0.2861,0 0.6537,0.201 0.8983,0.7362 0.6531,1.406 2.0407,3.4475 2.6938,4.1502 0.4513,0.4689 0.5797,0.8368 0.1227,1.1381 -0.4081,0.3013 -0.6531,0.4689 -0.163,1.6064 0.7906,1.5398 3.0918,6.9593 3.4195,7.7703 0.5318,1.4874 1.309,3.9204 1.4318,4.9003 0.0819,0.7773 0.1227,1.0474 0.409,1.3507 0.3277,0.2945 0.4507,0.8838 0.2049,1.2436 -0.2865,0.2622 -0.5731,0.5567 -1.2687,0.5567 z m -10.5313,-9.1999 c 0,0.6753 0.9008,2.3656 2.9874,4.4266 2.0001,1.8587 4.0527,2.9404 5.4632,2.9404 0.385,0 0.5987,-0.1018 0.6846,-0.2032 0.1687,-0.1687 0.1687,-0.4729 -0.1284,-0.9797 -0.5987,-1.0814 -2.5498,-3.1765 -5.9377,-5.8124 -1.2666,-0.9465 -2.1272,-1.2504 -2.4548,-1.2504 -0.4508,0 -0.6143,0.4731 -0.6143,0.8447 z m -9.9238,3.5017 c -0.5361,0 -0.6183,0.1023 -0.4947,0.3404 0.6596,1.2935 2.3091,3.6085 3.3398,3.6085 0.5363,0 1.1132,-0.4425 1.1132,-1.2597 0,-1.3615 -1.8964,-2.6892 -3.9169,-2.6892 z m -6.484,5.7818 c -0.7801,0 -2.092,-0.371 -3.1884,-0.9116 -1.0562,-0.54 -2.9869,-1.9582 -3.3996,-2.2623 -0.4124,-0.3717 -0.5774,-0.3717 -0.3711,0.1011 0.165,0.4391 1.4846,3.2389 2.4299,4.9683 1.2997,2.5932 2.1935,4.2554 2.3964,4.8538 0.3269,0.8646 0.163,1.463 -0.4467,1.463 -0.4873,0 -1.2186,-0.3657 -1.5837,-0.6322 -0.4065,-0.2659 -0.5687,-0.5315 -0.5687,-0.864 0,-0.6318 -0.1655,-1.3297 -0.5366,-2.0282 -0.701,-1.1636 -1.8552,-3.6569 -3.0104,-6.0383 -1.233,-2.5665 -2.9497,-7.598 -3.0316,-8.1383 -0.0822,-0.3376 -0.0822,-0.5734 0.1638,-0.8101 0.1633,-0.169 0.2452,-0.4391 0.286,-0.777 0,-0.4385 0.7767,-1.1478 1.5126,-1.1478 0.7396,0 2.389,0.4391 3.6675,1.0806 1.4763,0.743 3.9569,2.634 5.3515,4.39 1.1923,1.4517 2.2609,3.0725 2.2609,4.6931 0,0.6417 -0.6168,2.0599 -1.9318,2.0599 z m -9.0618,-9.5196 c 0.0411,1.1489 0.6182,2.2649 1.0718,2.9407 0.8663,1.3178 1.9383,2.2643 3.3797,3.2785 1.3405,1.0137 2.8044,1.5545 3.4611,1.5545 0.6152,0 0.9431,-0.4393 0.9431,-0.9124 0,-1.0814 -2.3323,-4.7994 -4.9385,-6.4559 -1.3198,-0.8788 -2.4741,-1.2841 -3.0929,-1.2841 -0.4532,0 -0.8243,0.1689 -0.8243,0.8447 z"
         style="fill:#bdbcbd;fill-opacity:1;fill-rule:evenodd;stroke:none"
         id="path842" />
    </g>
  </g>
</svg>
